<svg width="348" height="101" viewBox="0 0 348 101" fill="none" xmlns="http://www.w3.org/2000/svg">
<path d="M74.4538 54.7553C76.71 54.7553 78.8442 54.7553 81.1614 54.7553C81.1614 56.7076 81.1614 58.5378 81.1614 60.3681C81.1614 62.1984 81.1614 63.9676 81.1614 65.8589C72.6245 65.8589 64.2096 65.8589 55.6727 65.8589C55.6727 62.1984 55.6727 58.5988 55.6727 54.8163C57.441 54.8163 59.2094 54.8163 61.0997 54.8163C61.0997 46.6411 61.0997 38.649 61.0997 30.5958C61.0387 30.5348 60.9168 30.5348 60.8558 30.4738C60.6119 30.9009 60.368 31.2669 60.1241 31.694C54.9409 40.9673 49.8188 50.1796 44.7577 59.3919C44.2089 60.3681 43.5991 60.6121 42.5015 60.7952C39.4526 61.2222 37.8672 60.002 36.4037 57.3177C31.5255 48.4104 26.3424 39.6251 21.2812 30.7788C21.0373 30.2908 20.7324 29.8637 20.1836 29.4366C20.1836 37.7948 20.1836 46.153 20.1836 54.6943C22.013 54.6943 23.9643 54.6943 26.0375 54.6943C26.0375 58.4768 26.0375 62.1373 26.0375 65.8589C17.6835 65.8589 9.39057 65.8589 1.03662 65.8589C1.03662 62.1984 1.03662 58.5988 1.03662 54.8163C3.23182 54.8163 5.42702 54.8163 7.6832 54.8163C7.6832 41.0283 7.6832 27.3623 7.6832 13.5134C5.12213 13.5134 2.62204 13.5134 0 13.5134C0 9.73081 0 6.1313 0 2.28774C0.426844 2.28774 0.853688 2.28774 1.34151 2.28774C6.70755 2.28774 12.0736 2.34875 17.4396 2.28774C18.4763 2.28774 19.0251 2.6538 19.5129 3.50792C26.5253 15.8317 33.5987 28.0944 40.6722 40.4182C40.9161 40.9063 41.221 41.3334 41.6478 42.0045C42.0137 41.3334 42.2576 40.9063 42.5015 40.4792C49.1481 28.1555 55.7946 15.8317 62.4412 3.50792C62.929 2.59279 63.4169 2.22673 64.4535 2.28774C70.3073 2.34875 76.1002 2.28774 82.076 2.28774C82.076 6.00928 82.076 9.60879 82.076 13.3913C79.576 13.3913 77.0759 13.3913 74.4538 13.3913C74.4538 27.2403 74.4538 40.9063 74.4538 54.7553Z" fill="black"/>
<path d="M331.841 39.0154C334.585 44.1401 337.329 49.0818 340.073 54.0846C340.256 54.4506 340.927 54.7557 341.353 54.8167C343.549 54.8777 345.744 54.8777 348 54.8777C348 58.5992 348 62.2597 348 66.0423C345.134 66.0423 342.329 66.0423 339.463 66.0423C337.329 66.0423 335.195 65.9813 333 66.0423C332.085 66.0423 331.597 65.7982 331.17 64.9441C327.39 57.6231 323.548 50.302 319.706 42.92C319.219 42.0048 318.67 41.6998 317.694 41.6998C315.377 41.7608 313.06 41.6998 310.621 41.6998C310.621 46.0314 310.621 50.363 310.621 54.7557C312.755 54.7557 314.95 54.7557 317.206 54.7557C317.206 58.5382 317.206 62.1377 317.206 65.8593C308.304 65.8593 299.462 65.8593 290.559 65.8593C290.559 62.1987 290.559 58.5992 290.559 54.8167C292.815 54.8167 295.01 54.8167 297.267 54.8167C297.267 41.0287 297.267 27.3627 297.267 13.5747C295.071 13.5747 292.815 13.5747 290.498 13.5747C290.498 9.79219 290.498 6.19267 290.498 2.41013C290.925 2.41013 291.352 2.34912 291.779 2.34912C301.108 2.34912 310.438 2.34912 319.767 2.34912C324.097 2.34912 328.426 2.8982 332.512 4.48443C339.768 7.29083 343.61 12.7206 343.854 20.4687C344.098 29.254 340.5 35.0498 332.512 38.6493C332.39 38.7103 332.207 38.8324 331.841 39.0154ZM310.621 31.4503C314.401 31.3283 317.999 31.3283 321.536 30.9622C326.048 30.5352 328.731 28.3999 329.463 24.7393C329.829 23.1531 329.768 21.3839 329.646 19.7976C329.402 17.1132 327.816 15.283 325.194 14.4899C320.438 13.0257 315.499 13.6357 310.621 13.5137C310.621 19.4926 310.621 25.3494 310.621 31.4503Z" fill="black"/>
<path d="M192.568 54.8167C195.982 54.8167 199.336 54.8167 202.751 54.8167C202.751 58.5382 202.751 62.1377 202.751 65.8592C191.714 65.8592 180.738 65.8592 169.579 65.8592C169.579 62.2597 169.579 58.5992 169.579 54.8167C172.75 54.8167 175.921 54.8167 179.214 54.8167C179.214 41.0287 179.214 27.3017 179.214 13.5747C175.921 13.5747 172.628 13.5747 169.213 13.5747C168.542 17.2353 167.933 20.9568 167.262 24.8003C163.603 24.4953 159.945 24.1903 156.103 23.8242C156.774 16.6252 157.384 9.54816 158.054 2.34912C176.653 2.34912 195.129 2.34912 213.788 2.34912C214.459 9.42614 215.068 16.5642 215.739 23.7632C212.02 24.0682 208.422 24.4343 204.58 24.7393C203.91 20.9568 203.239 17.2353 202.568 13.4527C199.214 13.4527 195.982 13.4527 192.568 13.4527C192.568 27.2407 192.568 40.9067 192.568 54.8167Z" fill="black"/>
<path d="M87.686 89.1642H84.3322C84.1492 87.517 83.1736 86.7239 81.2833 86.7239C80.5516 86.7239 80.0028 86.8459 79.5759 87.0899C78.9661 87.395 78.6612 87.9441 78.6612 88.6152C78.6612 89.1642 78.9052 89.5303 79.332 89.7743C79.7589 90.0184 80.8564 90.3234 82.5638 90.7505C84.3932 91.1775 85.6737 91.6656 86.4054 92.1537C87.7469 93.0078 88.3567 94.228 88.3567 95.7532C88.3567 97.4614 87.686 98.7426 86.4054 99.7188C85.2468 100.573 83.6614 101 81.7101 101C78.9052 101 76.9539 100.207 75.7343 98.6206C75.0636 97.7055 74.6977 96.6073 74.6367 95.2041H78.1734C78.2344 96.1192 78.4783 96.7903 78.9052 97.2174C79.5759 97.8885 80.5516 98.2545 81.8321 98.2545C82.7468 98.2545 83.4175 98.0715 83.9053 97.7055C84.5151 97.2784 84.82 96.7903 84.82 96.0582C84.82 95.3871 84.3932 94.8381 83.6005 94.533C83.1736 94.35 82.076 94.0449 80.4296 93.5569C79.21 93.2518 78.2954 92.8858 77.5636 92.5807C76.8319 92.2147 76.2221 91.7266 75.8563 91.0555C75.4904 90.4454 75.3075 89.6523 75.3075 88.7982C75.3075 87.212 75.9782 85.9918 77.2588 85.0767C78.3564 84.2835 79.7588 83.9175 81.5272 83.9175C83.0516 83.9175 84.3322 84.2225 85.4298 84.8326C86.7713 85.7477 87.564 87.1509 87.686 89.1642Z" fill="#C90627"/>
<path d="M150.188 84.3447V87.3342H145.249V100.573H141.712V87.3342H136.834V84.3447H150.188Z" fill="#C90627"/>
<path d="M207.69 84.2837L213.849 100.573H210.129L208.849 96.9125H202.812L201.47 100.573H197.812L203.97 84.2837H207.69ZM207.995 94.3501L206.958 91.4217C206.47 90.0795 206.105 88.9204 205.861 87.8832C205.617 88.8593 205.19 90.0185 204.702 91.4217L203.665 94.3501H207.995Z" fill="#C90627"/>
<path d="M262.997 84.3447H270.863C272.388 84.3447 273.607 84.5888 274.461 85.0768C275.863 85.931 276.595 87.2121 276.595 88.9204C276.595 90.1406 276.229 91.1777 275.498 91.9708C275.071 92.3979 274.644 92.7029 274.034 92.886C274.766 93.069 275.315 93.435 275.741 94.1061C276.046 94.5942 276.229 95.2043 276.351 95.9974C276.412 96.2414 276.473 96.9735 276.595 98.2547C276.717 99.3529 276.839 100.085 277.083 100.39L277.205 100.573H273.485C273.363 100.39 273.302 100.146 273.241 99.841C273.18 99.5969 273.119 98.7428 272.997 97.2176C272.875 95.8754 272.51 95.0213 271.839 94.5942C271.412 94.2891 270.68 94.1671 269.766 94.1671H266.595V100.573H263.058V84.3447H262.997ZM266.534 87.1511V91.6048H269.888C270.985 91.6048 271.717 91.4217 272.205 91.1167C272.754 90.7506 273.058 90.1406 273.058 89.3474C273.058 88.3713 272.693 87.7612 271.9 87.3952C271.473 87.2121 270.863 87.0901 270.07 87.0901H266.534V87.1511Z" fill="#C90627"/>
<path d="M235.069 29.01C235.191 29.315 234.947 29.498 234.886 29.7421C230.069 40.4796 236.35 52.5594 247.875 54.6947C252.692 55.6098 257.143 54.5726 261.29 51.7662C261.046 51.4612 260.863 51.0951 260.558 50.8511C259.643 50.058 259.46 49.0819 259.704 47.9227C259.887 47.1906 259.643 46.5805 259.155 46.0314C257.997 44.7502 256.96 43.347 255.924 42.0048C255.68 41.6998 255.497 41.5168 255.009 41.5778C254.338 41.6388 253.789 41.0287 253.85 40.3576C253.911 39.6865 254.521 39.2594 255.192 39.3815C255.863 39.5035 256.29 40.1136 256.046 40.7847C255.863 41.2727 256.046 41.4558 256.289 41.7608C257.448 43.164 258.607 44.6282 259.765 46.0314C260.375 44.7502 260.192 43.5301 259.338 42.4929C257.509 40.2966 255.741 38.1613 253.972 35.965C253.728 35.6599 253.485 35.4159 252.997 35.4769C252.326 35.5379 251.777 34.9888 251.838 34.3177C251.899 33.6466 252.448 33.1586 253.119 33.2196C253.789 33.2806 254.277 33.9517 254.033 34.6228C253.911 35.0498 254.033 35.2939 254.277 35.5989C256.229 37.9783 258.241 40.3576 260.192 42.7369C260.558 43.164 260.619 43.5301 260.558 44.0791C260.375 45.6654 260.253 47.3126 260.07 48.8988C260.009 49.2649 260.131 49.5699 260.375 49.875C260.863 50.4851 261.29 51.1562 261.838 51.7052C262.326 52.1933 262.265 52.4983 261.656 52.8034C261.534 52.8644 261.412 52.9864 261.351 53.0474C258.18 54.9997 254.704 56.0979 250.984 56.0368C247.326 56.0368 243.972 54.9387 240.862 53.0474C240.679 52.9254 240.557 52.8644 240.374 52.7424C240.13 52.5594 239.947 52.4373 239.704 52.2543C239.399 52.0103 239.155 51.6442 238.728 51.5222C238.789 51.4002 238.667 51.3392 238.606 51.3392C238.118 50.8511 237.63 50.363 237.142 49.814C237.082 49.875 237.021 49.936 236.96 49.997C237.325 50.5461 237.813 51.0341 238.362 51.4612C238.423 51.5222 238.484 51.5832 238.545 51.5832C238.606 51.6442 238.667 51.7052 238.728 51.7052C238.972 51.9493 239.216 52.1933 239.521 52.3763C239.704 52.6204 240.008 52.8034 240.252 52.9254C240.374 53.0474 240.557 53.1084 240.679 53.2304C243.301 54.9997 246.167 55.9758 249.338 56.2809C253.85 56.7079 257.997 55.7318 261.717 53.1694C262.448 52.4983 262.875 52.8034 263.424 53.4745C265.192 55.6708 267.083 57.8061 268.912 59.9414C269.095 60.1244 269.339 60.3075 269.4 60.7345C264.765 57.8061 259.948 58.2332 255.131 59.9414C254.948 60.0024 254.765 60.0634 254.521 60.1244C254.826 60.1855 255.07 60.2465 255.314 60.1244C258.607 59.5144 261.899 59.4533 265.375 60.1854C264.278 60.9176 263.18 61.4666 262.082 61.9547C257.936 63.724 255.192 66.7744 254.094 71.167C253.972 71.5941 253.789 71.6551 253.424 71.6551C251.899 71.7161 250.436 71.7161 248.911 71.6551C248.484 71.6551 248.301 71.4721 248.24 71.045C248.058 70.0689 247.814 69.1537 247.692 68.1776C246.96 62.6258 243.667 59.0873 238.911 56.5859C238.606 56.4029 238.301 56.1589 237.874 56.3419C240.679 58.2332 242.996 60.5515 244.887 63.4189C243.545 63.1749 242.387 62.8088 241.289 62.3208C237.142 60.6125 233.118 60.8565 229.215 63.1749C228.91 63.3579 228.667 63.3579 228.362 63.1139C227.203 62.0767 226.167 60.9786 225.13 59.8804C224.886 59.5754 224.825 59.3923 225.069 59.0873C225.679 58.1722 226.227 57.196 226.898 56.3419C229.825 52.4373 230.252 48.0447 229.093 43.469C228.911 42.6759 228.728 41.8218 228.24 41.1507C228.85 44.5062 228.85 47.8617 228.118 51.4002C227.386 50.302 226.837 49.2649 226.41 48.1667C224.642 43.9571 221.593 41.2117 217.203 40.1136C216.837 39.9915 216.715 39.8695 216.715 39.5645C216.593 38.0393 216.654 36.514 216.715 34.9888C216.715 34.5008 216.959 34.3787 217.386 34.3177C218.666 34.0737 219.886 33.7687 221.166 33.5856C224.581 32.9755 227.386 31.2063 229.52 28.4609C230.496 27.1797 231.411 25.8375 232.081 24.3733C232.203 24.2513 232.264 24.1293 232.081 24.0072C232.081 24.0072 231.959 24.1293 231.898 24.1903C230.008 26.8747 227.752 29.193 224.886 31.0233C225.191 29.6201 225.618 28.3999 226.106 27.1797C227.752 23.0921 227.386 19.1876 225.191 15.405C224.947 14.9779 224.947 14.7949 225.252 14.4289C226.288 13.3307 227.325 12.2326 228.484 11.2564C228.789 11.0124 228.971 11.0124 229.276 11.1954C230.496 11.9885 231.594 12.8426 232.508 13.9408C234.581 16.5032 236.777 19.0045 238.972 21.5059C239.094 21.6279 239.094 21.9329 239.338 21.7499V21.8109C239.399 22.177 239.155 22.36 238.911 22.543C237.447 23.7632 236.167 25.1664 235.069 26.8136C234.764 27.2407 234.764 27.4847 235.069 27.9118C239.704 33.6466 244.338 39.4425 248.972 45.1773C249.155 45.4213 249.338 45.6044 249.765 45.5433C250.558 45.4213 251.106 45.9704 251.106 46.7025C251.045 47.3736 250.497 47.8617 249.826 47.8007C249.155 47.7397 248.728 47.1296 248.911 46.3975C248.972 46.0924 248.972 45.9094 248.789 45.6654C244.338 40.1746 239.886 34.6228 235.435 29.132C235.374 29.071 235.374 29.071 235.313 29.01C235.252 28.949 235.191 28.8879 235.191 28.8269C235.13 28.7049 235.008 28.5829 234.947 28.4609C234.764 28.2779 234.703 27.9728 234.398 27.9728C234.155 28.5219 233.85 29.01 233.606 29.559C231.045 35.7819 231.35 41.7608 234.947 47.5566C235.13 47.8617 235.374 48.1667 235.557 48.4718C235.679 48.6548 235.862 48.8378 235.984 49.0208C236.167 49.3259 236.35 49.6309 236.716 49.875C236.594 49.3259 236.594 49.3259 236.167 48.8988C235.984 48.6548 235.862 48.4718 235.679 48.2277C235.496 47.9227 235.313 47.6786 235.13 47.3736C234.581 46.3365 234.033 45.3603 233.606 44.2622C231.654 39.0764 231.898 34.0127 234.216 29.01C234.277 28.8269 234.277 28.3389 234.764 28.5829C234.764 28.7659 234.886 28.8879 235.069 28.949C235.008 28.8879 235.069 28.949 235.069 29.01ZM249.887 47.3126C250.314 47.2516 250.68 47.0075 250.68 46.5805C250.68 46.0924 250.436 45.7874 249.887 45.7264C249.399 45.7264 249.155 45.9704 249.094 46.4585C249.094 47.0076 249.399 47.2516 249.887 47.3126ZM255.741 40.4796C255.68 40.1136 255.436 39.8085 254.948 39.7475C254.46 39.7475 254.155 40.0526 254.155 40.5406C254.155 41.0287 254.46 41.2727 254.887 41.3337C255.436 41.3337 255.68 41.0287 255.741 40.4796Z" fill="black"/>
<path d="M239.155 21.6888C239.338 21.2007 238.85 21.0177 238.667 20.7736C236.898 18.6993 235.13 16.564 233.301 14.4897C233.118 14.3067 232.874 14.1237 232.752 13.5746C237.508 16.625 242.325 16.0759 247.143 14.2457C243.728 14.7948 240.313 14.9168 236.776 14.1237C237.874 13.3916 238.911 12.8425 240.008 12.4154C244.155 10.6462 246.96 7.65673 248.057 3.20309C248.179 2.83704 248.301 2.71502 248.728 2.65401C250.253 2.532 251.716 2.532 253.24 2.65401C253.728 2.65401 253.85 2.83704 253.972 3.2641C254.399 5.3384 254.643 7.47371 255.375 9.48699C256.045 11.3173 257.082 12.9645 258.485 14.3067C260.192 15.8929 262.021 17.1741 264.155 18.0892C264.216 18.2112 264.338 18.4553 264.521 18.2723C264.704 18.0892 264.46 18.0282 264.338 17.9672C261.594 16.0149 259.216 13.7576 257.265 10.7682C258.485 11.0122 259.582 11.3173 260.619 11.8053C262.814 12.7815 265.192 13.2085 267.57 12.9645C269.4 12.7815 271.168 12.1714 272.692 11.1952C273.302 10.8292 273.607 10.8902 274.034 11.3783C275.01 12.2934 275.985 13.2695 276.9 14.2457C277.266 14.6727 277.327 14.9168 277.022 15.4048C276.107 16.625 275.314 17.9062 274.461 19.2484C273.485 20.7736 272.753 22.4209 272.57 24.1291C272.266 26.5695 272.57 29.0708 273.241 31.4502C273.424 32.0602 273.607 32.6093 273.912 33.1584C273.424 29.8029 273.302 26.5084 274.034 23.153C274.339 23.092 274.339 23.336 274.4 23.458C275.01 24.4952 275.497 25.5323 275.985 26.6305C277.754 30.474 280.619 33.0364 284.705 34.1345C285.254 34.3176 285.498 34.5006 285.498 35.1107C285.498 36.3919 285.437 37.673 285.498 39.0152C285.498 39.7473 285.254 40.1134 284.461 40.2354C282.998 40.4795 281.473 40.7845 280.01 41.0895C275.985 42.0657 273.241 44.6891 271.107 48.1055C270.619 48.8376 270.253 49.6308 269.826 50.4239C269.704 50.6069 269.643 50.7289 269.887 50.8509C270.07 50.9119 270.192 50.7899 270.253 50.6069C271.229 48.3496 273.058 46.8244 274.827 45.1771C275.558 44.506 276.29 43.9569 277.205 43.4689C277.022 44.8721 276.473 46.0312 275.985 47.2514C274.461 51.278 274.705 55.1826 276.839 58.9041C277.144 59.4532 277.144 59.7582 276.717 60.1853C275.741 61.1614 274.827 62.0765 273.851 63.0527C273.363 63.4798 273.058 63.4798 272.57 63.1137C271.473 62.3816 270.497 61.5885 269.704 60.5513C267.631 58.05 265.497 55.5486 263.302 53.0473C262.753 52.4372 262.814 52.1321 263.424 51.6441C264.826 50.5459 265.924 49.1427 266.96 47.6785C267.265 47.2514 267.265 47.0074 266.96 46.5803C262.326 40.8455 257.692 35.1107 253.058 29.3759C252.814 29.0708 252.57 28.8878 252.143 29.0098C251.472 29.1318 250.923 28.5827 250.923 27.9116C250.923 27.2405 251.472 26.7525 252.143 26.7525C252.814 26.8135 253.301 27.3626 253.179 28.0337C253.058 28.5217 253.24 28.8268 253.545 29.1928C258.119 34.8056 262.631 40.4795 267.143 46.0923C267.509 46.5193 267.692 46.6413 267.997 46.0312C271.412 38.8932 270.863 32.0602 266.229 25.5933C266.107 25.4103 266.046 25.0442 265.619 25.1662C265.558 24.4952 265.131 24.0681 264.46 23.8851C264.643 23.519 264.277 23.458 264.095 23.275C262.143 21.4447 259.948 19.9805 257.387 19.1264C252.814 17.5402 248.24 17.6012 243.728 19.3704C243.484 19.4314 243.057 19.3704 243.057 19.8585C242.325 19.7975 241.838 20.1025 241.411 20.6516C240.74 20.5906 240.374 21.0177 239.947 21.4447C239.886 21.5667 239.581 21.8108 239.155 21.6888ZM252.997 27.9727C252.936 27.4846 252.753 27.1795 252.265 27.1795C251.777 27.1185 251.411 27.4846 251.411 27.9727C251.411 28.4607 251.716 28.7048 252.143 28.7658C252.631 28.7048 252.936 28.3997 252.997 27.9727Z" fill="#C90627"/>
<path d="M265.741 25.2271C265.68 25.5321 265.985 25.7151 266.107 25.8981C270.497 32.121 271.046 38.771 267.875 45.665C267.814 45.787 267.753 45.848 267.693 45.97C267.083 45.543 266.9 45.1159 267.266 44.3838C272.266 33.2802 264.583 20.4684 252.448 19.5532C248.485 19.2482 244.887 20.1633 241.472 22.1766C240.862 22.5427 240.74 22.8477 241.289 23.3358C241.289 23.3358 241.289 23.3968 241.35 23.3968C242.448 24.3119 242.631 25.4711 242.326 26.8133C242.204 27.3014 242.326 27.7284 242.692 28.1555C243.85 29.5587 245.009 31.0229 246.167 32.4261C246.411 32.7311 246.594 32.8531 247.021 32.8531C247.753 32.7921 248.302 33.3412 248.241 34.0123C248.18 34.6834 247.57 35.1715 246.96 35.0495C246.289 34.9274 245.862 34.3174 246.045 33.5853C246.106 33.3412 246.228 33.1582 246.045 32.9142C244.826 31.3889 243.606 29.9247 242.326 28.4605C242.204 29.6807 241.716 30.7789 242.753 31.938C244.704 34.0123 246.411 36.3306 248.241 38.527C248.485 38.832 248.667 38.954 249.094 38.954C249.826 38.893 250.375 39.4421 250.314 40.1132C250.253 40.7843 249.643 41.2724 249.033 41.1503C248.363 41.0283 247.936 40.4182 248.119 39.7471C248.241 39.3201 248.058 39.076 247.814 38.771C245.923 36.4527 244.033 34.1343 242.082 31.877C241.594 31.3279 241.411 30.7788 241.533 30.0467C241.716 28.5825 241.838 27.1183 241.96 25.6541C242.021 25.166 241.899 24.8 241.594 24.4949C241.228 24.1289 240.923 23.7018 240.618 23.3358C240.192 22.8477 239.582 22.3596 240.131 21.5665C240.801 21.5665 241.228 21.2005 241.594 20.7734C242.204 20.6514 242.753 20.4074 243.24 19.9803C243.484 20.1023 243.728 19.9193 243.911 19.7973C247.509 18.3331 251.229 18.089 255.009 18.8821C258.424 19.6142 261.412 21.2005 263.973 23.5798C264.156 23.7628 264.278 24.0679 264.583 24.0069C264.827 24.4949 265.253 24.861 265.741 25.2271ZM247.997 33.8293C247.875 33.4632 247.692 33.0972 247.204 33.0972C246.716 33.0972 246.411 33.4022 246.411 33.8293C246.411 34.3784 246.716 34.6224 247.204 34.6224C247.631 34.6834 247.875 34.3174 247.997 33.8293Z" fill="#EF652F"/>
<path d="M104.76 26.508C104.882 26.8131 104.638 26.9961 104.577 27.2401C99.7595 37.9777 106.04 50.0574 117.565 52.1927C122.382 53.1078 126.834 52.0707 130.98 49.2643C130.736 48.9592 130.553 48.5932 130.248 48.3491C129.334 47.556 129.151 46.5799 129.395 45.4207C129.578 44.6886 129.334 44.0785 128.846 43.5295C127.687 42.2483 126.651 40.8451 125.614 39.5029C125.37 39.1978 125.187 39.0148 124.699 39.0758C124.029 39.1368 123.48 38.5267 123.541 37.8556C123.602 37.1845 124.212 36.7575 124.882 36.8795C125.553 37.0015 125.98 37.6116 125.736 38.2827C125.553 38.7708 125.736 38.9538 125.98 39.2588C127.139 40.662 128.297 42.1263 129.456 43.5295C130.065 42.2483 129.883 41.0281 129.029 39.9909C127.199 37.7946 125.431 35.6593 123.663 33.463C123.419 33.158 123.175 32.9139 122.687 32.9749C122.016 33.0359 121.468 32.4869 121.529 31.8158C121.59 31.1447 122.138 30.6566 122.809 30.7176C123.48 30.7786 123.968 31.4497 123.724 32.1208C123.602 32.5479 123.724 32.7919 123.968 33.097C125.919 35.4763 127.931 37.8556 129.883 40.235C130.248 40.662 130.309 41.0281 130.248 41.5772C130.065 43.1634 129.943 44.8106 129.761 46.3969C129.7 46.7629 129.822 47.068 130.065 47.373C130.553 47.9831 130.98 48.6542 131.529 49.2033C132.017 49.6913 131.956 49.9964 131.346 50.3014C131.224 50.3624 131.102 50.4845 131.041 50.5455C127.87 52.4977 124.395 53.5959 120.675 53.5349C117.016 53.5349 113.662 52.4367 110.553 50.5455C110.37 50.4234 110.248 50.3624 110.065 50.2404C109.821 50.0574 109.638 49.9354 109.394 49.7523C109.089 49.5083 108.845 49.1423 108.418 49.0202C108.479 48.8982 108.357 48.8372 108.296 48.8372C107.809 48.3492 107.321 47.8611 106.833 47.312C106.772 47.373 106.711 47.434 106.65 47.495C107.016 48.0441 107.504 48.5322 108.052 48.9592C108.113 49.0202 108.174 49.0813 108.235 49.0813C108.296 49.1423 108.357 49.2033 108.418 49.2033C108.662 49.4473 108.906 49.6913 109.211 49.8744C109.394 50.1184 109.699 50.3014 109.943 50.4234C110.065 50.5455 110.248 50.6065 110.37 50.7285C112.992 52.4977 115.858 53.4739 119.028 53.7789C123.541 54.206 127.687 53.2299 131.407 50.6675C132.139 49.9964 132.566 50.3014 133.114 50.9725C134.883 53.1688 136.773 55.3041 138.602 57.4395C138.785 57.6225 139.029 57.8055 139.09 58.2326C134.456 55.3041 129.639 55.7312 124.821 57.4395C124.638 57.5005 124.455 57.5615 124.212 57.6225C124.516 57.6835 124.76 57.7445 125.004 57.6225C128.297 57.0124 131.59 56.9514 135.066 57.6835C133.968 58.4156 132.87 58.9647 131.773 59.4527C127.626 61.222 124.882 64.2724 123.785 68.6651C123.663 69.0921 123.48 69.1531 123.114 69.1531C121.59 69.2141 120.126 69.2141 118.602 69.1531C118.175 69.1531 117.992 68.9701 117.931 68.543C117.748 67.5669 117.504 66.6518 117.382 65.6756C116.65 60.1238 113.358 56.5853 108.601 54.084C108.296 53.9009 107.991 53.6569 107.565 53.8399C110.37 55.7312 112.687 58.0495 114.577 60.917C113.236 60.6729 112.077 60.3069 110.979 59.8188C106.833 58.1106 102.808 58.3546 98.9058 60.6729C98.6009 60.8559 98.357 60.8559 98.0521 60.6119C96.8935 59.5748 95.8569 58.4766 94.8203 57.3784C94.5764 57.0734 94.5154 56.8904 94.7593 56.5853C95.3691 55.6702 95.9179 54.6941 96.5887 53.8399C99.5156 49.9354 99.9424 45.5427 98.7839 40.9671C98.6009 40.174 98.418 39.3199 97.9302 38.6488C98.54 42.0042 98.5399 45.3597 97.8082 48.8982C97.0765 47.8001 96.5277 46.7629 96.1008 45.6648C94.3325 41.4552 91.2836 38.7098 86.8932 37.6116C86.5273 37.4896 86.4054 37.3676 86.4054 37.0625C86.2834 35.5373 86.3444 34.0121 86.4054 32.4869C86.4054 31.9988 86.6493 31.8768 87.0761 31.8158C88.3567 31.5717 89.5762 31.2667 90.8567 31.0837C94.2715 30.4736 97.0765 28.7043 99.2107 25.9589C100.186 24.6777 101.101 23.3356 101.772 21.8713C101.894 21.7493 101.955 21.6273 101.772 21.5053C101.772 21.5053 101.65 21.6273 101.589 21.6883C99.6985 24.3727 97.4424 26.691 94.5764 28.5213C94.8813 27.1181 95.3081 25.8979 95.796 24.6777C97.4424 20.5902 97.0765 16.6856 94.8813 12.9031C94.6374 12.476 94.6374 12.293 94.9423 11.9269C95.9789 10.8288 97.0155 9.7306 98.1741 8.75446C98.479 8.51043 98.6619 8.51043 98.9668 8.69345C100.186 9.48657 101.284 10.3407 102.199 11.4388C104.272 14.0012 106.467 16.5026 108.662 19.0039C108.784 19.126 108.784 19.431 109.028 19.248V19.309C109.089 19.675 108.845 19.8581 108.601 20.0411C107.138 21.2613 105.857 22.6645 104.76 24.3117C104.455 24.7388 104.455 24.9828 104.76 25.4099C109.394 31.1447 114.028 36.9405 118.663 42.6753C118.846 42.9194 119.028 43.1024 119.455 43.0414C120.248 42.9194 120.797 43.4684 120.797 44.2006C120.736 44.8717 120.187 45.3597 119.516 45.2987C118.846 45.2377 118.419 44.6276 118.602 43.8955C118.663 43.5905 118.663 43.4074 118.48 43.1634C114.028 37.6726 109.577 32.1208 105.126 26.63C105.065 26.569 105.065 26.569 105.004 26.508C104.943 26.447 104.882 26.386 104.882 26.325C104.821 26.203 104.699 26.0809 104.638 25.9589C104.455 25.7759 104.394 25.4709 104.089 25.4709C103.845 26.0199 103.54 26.508 103.296 27.0571C100.735 33.28 101.04 39.2588 104.638 45.0547C104.821 45.3597 105.065 45.6648 105.248 45.9698C105.369 46.1528 105.552 46.3359 105.674 46.5189C105.857 46.8239 106.04 47.129 106.406 47.373C106.284 46.8239 106.284 46.8239 105.857 46.3969C105.674 46.1528 105.552 45.9698 105.369 45.7258C105.187 45.4207 105.004 45.1767 104.821 44.8716C104.272 43.8345 103.723 42.8584 103.296 41.7602C101.345 36.5745 101.589 31.5107 103.906 26.508C103.967 26.325 103.967 25.8369 104.455 26.0809C104.455 26.264 104.577 26.386 104.76 26.447C104.699 26.386 104.76 26.447 104.76 26.508ZM119.577 44.8106C120.004 44.7496 120.37 44.5056 120.37 44.0785C120.37 43.5905 120.126 43.2854 119.577 43.2244C119.089 43.2244 118.846 43.4684 118.785 43.9565C118.785 44.4446 119.089 44.6886 119.577 44.8106ZM125.431 37.9166C125.37 37.5506 125.126 37.2456 124.638 37.1845C124.151 37.1845 123.846 37.4896 123.846 37.9777C123.846 38.4657 124.151 38.7098 124.577 38.7708C125.126 38.8318 125.37 38.4657 125.431 37.9166Z" fill="black"/>
<path d="M108.845 19.1262C109.028 18.6382 108.54 18.4552 108.357 18.2111C106.589 16.1368 104.821 14.0015 102.991 11.9272C102.808 11.7442 102.564 11.5612 102.442 11.0121C107.199 14.0625 112.016 13.5134 116.833 11.6832C113.418 12.2323 110.004 12.3543 106.467 11.5612C107.565 10.8291 108.601 10.28 109.699 9.85292C113.845 8.08366 116.65 5.09423 117.748 0.640592C117.87 0.274539 117.992 0.152522 118.419 0.0915132C119.943 -0.0305044 121.406 -0.0305044 122.931 0.0915132C123.358 0.0915132 123.541 0.274539 123.663 0.701601C124.089 2.7759 124.333 4.91121 125.065 6.92449C125.736 8.75476 126.773 10.402 128.175 11.7442C129.882 13.3304 131.712 14.6116 133.846 15.5267C133.907 15.6487 134.029 15.8928 134.212 15.7098C134.395 15.5267 134.151 15.4657 134.029 15.4047C131.285 13.4524 128.907 11.1951 126.955 8.20568C128.175 8.44971 129.273 8.75476 130.309 9.24283C132.504 10.219 134.883 10.646 137.261 10.402C139.09 10.219 140.858 9.60888 142.383 8.63274C142.993 8.26669 143.297 8.3277 143.724 8.81577C144.7 9.7309 145.676 10.707 146.59 11.6832C146.956 12.1102 147.017 12.3543 146.712 12.8423C145.798 14.0625 145.005 15.3437 144.151 16.6859C143.176 18.2111 142.444 19.8584 142.261 21.5666C141.956 24.007 142.261 26.5083 142.932 28.8877C143.115 29.4977 143.297 30.0468 143.602 30.5959C143.115 27.2404 142.993 23.9459 143.724 20.5905C144.029 20.5295 144.029 20.7735 144.09 20.8955C144.7 21.9327 145.188 22.9698 145.676 24.068C147.444 27.9115 150.31 30.4739 154.395 31.572C154.944 31.7551 155.188 31.9381 155.188 32.5482C155.188 33.8294 155.127 35.1105 155.188 36.4527C155.188 37.1848 154.944 37.5509 154.152 37.6729C152.688 37.917 151.164 38.222 149.7 38.527C145.676 39.5032 142.932 42.1266 140.797 45.543C140.31 46.2752 139.944 47.0683 139.517 47.8614C139.395 48.0444 139.334 48.1664 139.578 48.2884C139.761 48.3494 139.883 48.2274 139.944 48.0444C140.919 45.7871 142.749 44.2619 144.517 42.6146C145.249 41.9435 145.98 41.3945 146.895 40.9064C146.712 42.3096 146.163 43.4688 145.676 44.6889C144.151 48.7155 144.395 52.6201 146.529 56.3416C146.834 56.8907 146.834 57.1957 146.407 57.6228C145.432 58.5989 144.517 59.5141 143.541 60.4902C143.054 60.9173 142.749 60.9173 142.261 60.5512C141.163 59.8191 140.188 59.026 139.395 57.9888C137.322 55.4875 135.187 52.9861 132.992 50.4848C132.443 49.8747 132.504 49.5696 133.114 49.0816C134.517 47.9834 135.614 46.5802 136.651 45.116C136.956 44.6889 136.956 44.4449 136.651 44.0178C132.017 38.283 127.382 32.5482 122.748 26.8134C122.504 26.5083 122.26 26.3253 121.833 26.4473C121.163 26.5693 120.614 26.0202 120.614 25.3491C120.614 24.678 121.163 24.19 121.833 24.19C122.504 24.251 122.992 24.8001 122.87 25.4712C122.748 25.9592 122.931 26.2643 123.236 26.6303C127.809 32.2431 132.321 37.917 136.834 43.5298C137.2 43.9568 137.383 44.0788 137.688 43.4688C141.102 36.3307 140.553 29.4977 135.919 23.0308C135.797 22.8478 135.736 22.4817 135.309 22.6038C135.248 21.9327 134.822 21.5056 134.151 21.3226C134.334 20.9565 133.968 20.8955 133.785 20.7125C131.834 18.8822 129.638 17.418 127.077 16.5639C122.504 14.9777 117.931 15.0387 113.418 16.8079C113.174 16.8689 112.748 16.8079 112.748 17.296C112.016 17.235 111.528 17.54 111.101 18.0891C110.43 18.0281 110.065 18.4552 109.638 18.8822C109.577 19.0652 109.272 19.3093 108.845 19.1262ZM122.687 25.4102C122.626 24.9221 122.443 24.617 121.955 24.617C121.467 24.556 121.102 24.9221 121.102 25.4102C121.102 25.8982 121.406 26.1423 121.833 26.2033C122.321 26.2033 122.626 25.8982 122.687 25.4102Z" fill="#C90627"/>
<path d="M135.432 22.665C135.371 22.9701 135.676 23.1531 135.798 23.3361C140.188 29.559 140.737 36.209 137.566 43.103C137.505 43.225 137.444 43.286 137.383 43.408C136.773 42.981 136.59 42.5539 136.956 41.8218C141.956 30.7182 134.273 17.9064 122.139 16.9912C118.175 16.6862 114.577 17.6013 111.163 19.6146C110.553 19.9807 110.431 20.2857 110.98 20.7738C110.98 20.7738 110.98 20.8348 111.041 20.8348C112.138 21.7499 112.321 22.9091 112.016 24.2513C111.894 24.7393 112.016 25.1664 112.382 25.5935C113.541 26.9967 114.699 28.4609 115.858 29.8641C116.102 30.1691 116.285 30.2911 116.711 30.2911C117.443 30.2301 117.992 30.7792 117.931 31.4503C117.87 32.1214 117.26 32.6095 116.651 32.4875C115.98 32.3654 115.553 31.7553 115.736 31.0232C115.797 30.7792 115.919 30.5962 115.736 30.3521C114.516 28.8269 113.297 27.3627 112.016 25.8985C111.894 27.1187 111.406 28.2168 112.443 29.376C114.394 31.4503 116.102 33.7686 117.931 35.965C118.175 36.27 118.358 36.392 118.785 36.392C119.516 36.331 120.065 36.8801 120.004 37.5512C119.943 38.2223 119.334 38.7103 118.724 38.5883C118.053 38.4663 117.626 37.8562 117.809 37.1851C117.931 36.7581 117.748 36.514 117.504 36.209C115.614 33.8907 113.724 31.5723 111.772 29.315C111.284 28.7659 111.102 28.2168 111.223 27.4847C111.406 26.0205 111.528 24.5563 111.65 23.0921C111.711 22.604 111.589 22.238 111.284 21.9329C110.919 21.5669 110.614 21.1398 110.309 20.7738C109.882 20.2857 109.272 19.7976 109.821 19.0045C110.492 19.0045 110.919 18.6385 111.284 18.2114C111.894 18.0894 112.443 17.8453 112.931 17.4183C113.175 17.5403 113.419 17.3573 113.602 17.2353C117.199 15.771 120.919 15.527 124.7 16.3201C128.114 17.0522 131.102 18.6385 133.663 21.0178C133.846 21.2008 133.968 21.5059 134.273 21.4449C134.517 21.9329 134.944 22.36 135.432 22.665ZM117.626 31.3283C117.504 30.9622 117.321 30.5962 116.833 30.5962C116.346 30.5962 116.041 30.9012 116.041 31.3283C116.041 31.8774 116.346 32.1214 116.833 32.1214C117.321 32.1214 117.565 31.8164 117.626 31.3283Z" fill="#EF652F"/>
</svg>
