<svg width="50" height="50" viewBox="0 0 50 50" fill="none" xmlns="http://www.w3.org/2000/svg">
<rect width="50" height="50" fill="#F3F3F3"/>
<path fill-rule="evenodd" clip-rule="evenodd" d="M16.7072 24.1771C16.3078 24.2321 16 24.5795 16 24.9999C16 25.4585 16.3663 25.8302 16.8182 25.8302H31.1999L26.0047 31.0813L25.9253 31.1743C25.687 31.4989 25.7124 31.9602 26.0023 32.2556C26.3212 32.5805 26.8392 32.5816 27.1594 32.258L33.7477 25.5996C33.787 25.5614 33.8224 25.5194 33.8536 25.474C34.0766 25.1498 34.0452 24.6999 33.7593 24.4111L27.1593 17.7419L27.0674 17.6617C26.7466 17.4213 26.2921 17.449 26.0023 17.7445C25.6834 18.0694 25.6845 18.5951 26.0047 18.9187L31.2012 24.1696H16.8182L16.7072 24.1771Z" fill="#891609"/>
</svg>
