<svg width="20" height="20" viewBox="0 0 20 20" fill="none" xmlns="http://www.w3.org/2000/svg">
<path fill-rule="evenodd" clip-rule="evenodd" d="M17.086 2.90646C15.2059 1.03321 12.7055 0.00109374 10.0418 0C4.5529 0 0.0857224 4.44563 0.0835244 9.90966C0.0827708 11.6564 0.541244 13.3614 1.41272 14.8643L0 19.9998L5.27903 18.6216C6.73361 19.4113 8.37122 19.8274 10.0377 19.8279H10.0419C15.5302 19.8279 19.9978 15.3819 19.9999 9.9176C20.001 7.26944 18.9662 4.77963 17.086 2.90646ZM10.0418 18.1542H10.0383C8.55321 18.1535 7.09665 17.7563 5.82567 17.006L5.5236 16.8274L2.39093 17.6453L3.22706 14.6056L3.03018 14.294C2.20165 12.9825 1.76412 11.4666 1.76488 9.91025C1.7666 5.36868 5.47967 1.67379 10.0451 1.67379C12.2559 1.67451 14.334 2.53241 15.8967 4.08939C17.4593 5.64637 18.3194 7.71594 18.3187 9.91697C18.3167 14.4589 14.6039 18.1542 10.0418 18.1542ZM14.5818 11.9849C14.333 11.8609 13.1097 11.262 12.8815 11.1793C12.6536 11.0966 12.4875 11.0555 12.3218 11.3033C12.1559 11.5511 11.6791 12.1089 11.5339 12.2741C11.3886 12.4394 11.2437 12.4601 10.9948 12.3361C10.7459 12.2122 9.94424 11.9506 8.99379 11.107C8.25416 10.4504 7.75483 9.63951 7.60961 9.39173C7.46463 9.14367 7.60835 9.02258 7.71875 8.88633C7.9881 8.55346 8.25783 8.20446 8.34076 8.03931C8.42378 7.874 8.38221 7.72937 8.31991 7.60547C8.25783 7.48156 7.76023 6.2627 7.55293 5.76674C7.35081 5.28409 7.14583 5.34925 6.993 5.34172C6.84803 5.3345 6.68208 5.33303 6.51613 5.33303C6.35027 5.33303 6.08067 5.3949 5.85255 5.64296C5.62452 5.8909 4.98182 6.48989 4.98182 7.70875C4.98182 8.92761 5.8734 10.1051 5.99777 10.2703C6.12212 10.4357 7.75238 12.9368 10.2483 14.0093C10.842 14.2647 11.3054 14.4169 11.6669 14.531C12.263 14.7195 12.8052 14.6929 13.234 14.6292C13.7121 14.558 14.706 14.0301 14.9136 13.4517C15.1209 12.8732 15.1209 12.3775 15.0585 12.2741C14.9965 12.1709 14.8305 12.1089 14.5818 11.9849Z" fill="#0DB833"/>
</svg>
