<svg width="82" height="82" viewBox="0 0 82 82" fill="none" xmlns="http://www.w3.org/2000/svg">
<path d="M1.81416 44.9911C1.0885 44.9911 0.665192 44.6283 0.544248 43.9027C0.181416 41.9676 0 39.972 0 37.9159C0 27.5147 3.71903 18.5951 11.1571 11.1571C18.5951 3.71902 27.5147 0 37.9159 0C39.972 0 41.9676 0.181412 43.9027 0.54425C44.6283 0.665192 44.9911 1.08849 44.9911 1.81416V6.89381C55.2714 7.01475 64.0096 10.7338 71.2057 18.0509C78.4019 25.368 82 34.1667 82 44.4469C82 54.7271 78.3414 63.556 71.0243 70.9336C63.7072 78.3112 54.8481 82 44.4469 82C34.1667 82 25.368 78.4019 18.0509 71.2058C10.7338 64.0096 7.01475 55.2714 6.89381 44.9911H1.81416ZM44.4469 18.1416C44.205 18.3835 43.9631 18.5044 43.7212 18.5044C43.6003 18.5044 43.4794 18.444 43.3584 18.323C41.6652 17.8392 39.851 17.5973 37.9159 17.5973C32.3525 17.5973 27.5752 19.5929 23.5841 23.5841C19.5929 27.5752 17.5973 32.3525 17.5973 37.9159C17.5973 39.851 17.8392 41.6652 18.323 43.3584C18.444 43.4794 18.5044 43.6003 18.5044 43.7212C18.5044 44.5678 18.0811 44.9911 17.2345 44.9911H9.43363C9.55457 54.5457 13.0317 62.6792 19.865 69.3916C26.6984 76.104 34.8923 79.4602 44.4469 79.4602C54.1224 79.4602 62.3768 76.0435 69.2102 69.2102C76.0435 62.3768 79.4602 54.1224 79.4602 44.4469C79.4602 34.8923 76.104 26.6984 69.3916 19.865C62.6792 13.0317 54.5457 9.55457 44.9911 9.43362V17.2345C44.9911 17.5973 44.8097 17.8997 44.4469 18.1416ZM4.17257 27.2124C3.08407 30.7198 2.53982 34.2876 2.53982 37.9159C2.53982 39.4882 2.66077 41 2.90265 42.4513H15.6018C15.2389 41 15.0575 39.4882 15.0575 37.9159C15.0575 31.6268 17.295 26.2448 21.7699 21.7699C26.2448 17.295 31.6268 15.0575 37.9159 15.0575C39.4882 15.0575 41 15.2389 42.4513 15.6018V2.90266C41 2.66077 39.4882 2.53983 37.9159 2.53983C30.7802 2.53983 23.9167 4.9587 17.3252 9.79646C10.7338 14.6342 6.34956 20.4395 4.17257 27.2124ZM30.75 58.1438C30.75 58.1438 29.7976 57.1914 27.8927 55.2865C25.9878 53.3816 25.0354 49.7684 25.0354 44.4469C25.0354 39.1254 26.9403 34.5597 30.75 30.75C34.5597 26.9403 39.1254 25.0354 44.4469 25.0354C46.6239 25.0354 49.0428 25.5796 51.7035 26.6681C54.3643 27.7566 56.4808 29.0265 58.0531 30.4779C58.174 30.5988 58.295 30.7198 58.4159 30.8407C59.8673 32.413 61.1372 34.4993 62.2257 37.0996C63.3142 39.6999 63.8584 42.028 63.8584 44.0841C63.8584 44.205 63.8584 44.326 63.8584 44.4469C63.8584 44.5678 63.8584 44.6283 63.8584 44.6283C63.8584 46.8053 63.3142 49.194 62.2257 51.7942C61.1372 54.3945 59.8673 56.4204 58.4159 57.8717C58.295 58.1136 58.174 58.295 58.0531 58.4159C56.9646 59.3835 55.6342 60.2906 54.0619 61.1372C52.4897 61.9838 50.8569 62.649 49.1637 63.1327C47.4705 63.6165 45.8982 63.8584 44.4469 63.8584C39.1254 63.8584 34.5597 61.9535 30.75 58.1438ZM38.2788 36.4646C38.5206 36.7065 38.6416 37.0089 38.6416 37.3717C38.6416 38.2183 38.2183 38.6416 37.3717 38.6416C37.0089 38.6416 36.7065 38.5206 36.4646 38.2788L31.7478 33.3805C29.208 36.1622 27.8171 39.4277 27.5752 43.177H34.469C35.3156 43.177 35.7389 43.6003 35.7389 44.4469C35.7389 45.2935 35.3156 45.7168 34.469 45.7168H27.5752C27.9381 49.3451 29.2684 52.6106 31.5664 55.5133L36.4646 50.615C36.7065 50.3732 37.0089 50.2522 37.3717 50.2522C38.2183 50.2522 38.6416 50.6755 38.6416 51.5221C38.6416 51.885 38.5206 52.1873 38.2788 52.4292L33.3805 57.146C36.2832 59.5649 39.5487 60.9558 43.177 61.3186V54.4248C43.177 53.5782 43.6003 53.1549 44.4469 53.1549C45.2935 53.1549 45.7168 53.5782 45.7168 54.4248V61.3186C49.3451 60.9558 52.6106 59.5649 55.5133 57.146L50.615 52.4292C50.3732 52.1873 50.2522 51.885 50.2522 51.5221C50.2522 50.6755 50.6755 50.2522 51.5221 50.2522C51.885 50.2522 52.1873 50.3732 52.4292 50.615L57.146 55.3319C59.5649 52.5501 60.9558 49.3451 61.3186 45.7168H54.4248C53.5782 45.7168 53.1549 45.2935 53.1549 44.4469C53.1549 43.6003 53.5782 43.177 54.4248 43.177H61.3186C60.9558 39.5487 59.5649 36.2832 57.146 33.3805L52.4292 38.2788C52.1873 38.5206 51.885 38.6416 51.5221 38.6416C50.6755 38.6416 50.2522 38.2183 50.2522 37.3717C50.2522 37.0089 50.3732 36.7065 50.615 36.4646L55.5133 31.5664C52.6106 29.2684 49.3451 27.9381 45.7168 27.5752V34.469C45.7168 35.3156 45.2935 35.7389 44.4469 35.7389C43.6003 35.7389 43.177 35.3156 43.177 34.469V27.5752C39.5487 27.9381 36.2832 29.2684 33.3805 31.5664L38.2788 36.4646ZM47.8938 47.8938C47.8938 47.8938 47.6519 48.1357 47.1681 48.6195C46.6844 49.1032 45.7773 49.3451 44.4469 49.3451C43.1165 49.3451 41.9676 48.8614 41 47.8938C40.0324 46.9263 39.5487 45.7773 39.5487 44.4469C39.5487 43.1165 40.0324 41.9676 41 41C41.9676 40.0324 43.1165 39.5487 44.4469 39.5487C45.7773 39.5487 46.9263 40.0324 47.8938 41C48.8614 41.9676 49.3451 43.1165 49.3451 44.4469C49.3451 45.7773 48.8614 46.9263 47.8938 47.8938ZM46.0796 42.8142C46.0796 42.8142 45.9587 42.6932 45.7168 42.4513C45.4749 42.2094 45.0516 42.0885 44.4469 42.0885C43.8422 42.0885 43.2979 42.3304 42.8142 42.8142C42.3304 43.2979 42.0885 43.8422 42.0885 44.4469C42.0885 45.0516 42.3304 45.5959 42.8142 46.0796C43.2979 46.5634 43.8422 46.8053 44.4469 46.8053C45.0516 46.8053 45.5959 46.5634 46.0796 46.0796C46.5634 45.5959 46.8053 45.0516 46.8053 44.4469C46.8053 43.8422 46.5634 43.2979 46.0796 42.8142ZM10.1593 32.4734C9.67552 32.2316 9.43363 31.8083 9.43363 31.2035C9.43363 31.0826 9.43363 30.9617 9.43363 30.8407C9.67552 30.236 9.88717 29.6917 10.0686 29.208C10.25 28.7242 10.6431 28.4823 11.2478 28.4823C12.0944 28.4823 12.5177 28.9056 12.5177 29.7522C12.5177 29.8732 12.4572 30.0546 12.3363 30.2965C12.2153 30.7802 12.0339 31.264 11.792 31.7478C11.5501 32.2316 11.1873 32.4734 10.7035 32.4734C10.4617 32.4734 10.2802 32.4734 10.1593 32.4734ZM18.1416 20.6814C17.295 20.6814 16.8717 20.2581 16.8717 19.4115C16.8717 19.0487 16.9926 18.7463 17.2345 18.5044C17.5973 18.1416 18.0206 17.7183 18.5044 17.2345C18.7463 16.9926 19.0487 16.8717 19.4115 16.8717C20.2581 16.8717 20.6814 17.295 20.6814 18.1416C20.6814 18.5044 20.5 18.8673 20.1372 19.2301C19.7743 19.472 19.472 19.7743 19.2301 20.1372C18.8673 20.5 18.5044 20.6814 18.1416 20.6814ZM29.7522 12.5177C28.9056 12.5177 28.4823 12.0944 28.4823 11.2478C28.4823 10.6431 28.7242 10.25 29.208 10.0686C29.6917 9.88717 30.236 9.67551 30.8407 9.43362C30.9617 9.43362 31.0826 9.43362 31.2035 9.43362C32.0501 9.43362 32.4734 9.85693 32.4734 10.7035C32.4734 11.1873 32.2316 11.5501 31.7478 11.792C31.264 12.0339 30.7802 12.2153 30.2965 12.3363C30.1755 12.4572 29.9941 12.5177 29.7522 12.5177Z" fill="#891609"/>
</svg>
