<svg width="82" height="82" viewBox="0 0 82 82" fill="none" xmlns="http://www.w3.org/2000/svg">
<path d="M3.7963 80.8505L0 49.4299C0 49.3022 0 49.2383 0 49.2383C0 48.3442 0.442901 47.8972 1.3287 47.8972H12.7176C13.3503 47.8972 13.7299 48.2165 13.8565 48.8551L15.1852 53.0701C16.1975 52.6869 17.0833 52.1121 17.8426 51.3458L20.3102 49.2383C23.3472 46.9393 26.7639 45.7897 30.5602 45.7897C33.2176 45.7897 35.6852 46.3645 37.963 47.514L39.1019 48.0888C40.3673 48.7274 41.7593 49.0467 43.2778 49.0467H50.3009L55.6157 46.1729C56.8812 45.4065 58.2099 45.0234 59.6019 45.0234C61.3735 45.0234 62.9552 45.5981 64.3472 46.7477L65.2963 46.3645C66.4352 45.7259 67.669 45.5662 68.9977 45.8855C70.3264 46.2048 71.4336 46.8754 72.3195 47.8972H72.5093C73.5216 47.2586 74.6605 46.9393 75.9259 46.9393C76.9383 46.9393 78.0455 47.2905 79.2477 47.993C80.4499 48.6955 81.304 49.4938 81.8102 50.3878C81.9367 50.6433 82 50.8988 82 51.1542C82 51.5374 81.8102 51.8567 81.4306 52.1121L56.9444 69.1636C56.8179 69.2913 56.7546 69.3551 56.7546 69.3551C54.0972 70.6324 51.3133 71.271 48.4028 71.271C47.3904 71.271 46.3148 71.1433 45.1759 70.8878L30.9398 68.3972C30.5602 68.2695 30.2438 68.2056 29.9907 68.2056C29.2315 68.2056 28.5988 68.3972 28.0926 68.7804L21.2593 72.9953L23.3472 80.2757C23.4738 80.4034 23.537 80.5312 23.537 80.6589C23.537 81.553 23.0941 82 22.2083 82H5.125C4.2392 82 3.7963 81.6168 3.7963 80.8505ZM66.4352 48.6636L59.6019 52.4953C59.9815 53.0062 60.2978 53.6449 60.5509 54.4112L60.9306 54.2196L69.8519 49.2383C68.713 48.3442 67.5741 48.1526 66.4352 48.6636ZM56.9444 48.472L55.2361 49.4299C56.1219 49.6854 56.8812 50.0685 57.5139 50.5794L61.6898 48.2804C61.0571 47.8972 60.2978 47.7056 59.412 47.7056C58.5262 47.7056 57.7037 47.9611 56.9444 48.472ZM19.7407 53.4533C18.6019 54.4751 17.3364 55.1776 15.9444 55.5607L20.5 70.3131L26.5741 66.4813L26.7639 66.2897C27.7762 65.7788 28.8519 65.5234 29.9907 65.5234C30.4969 65.5234 31.0031 65.5872 31.5093 65.715L45.7454 68.3972C46.6312 68.5249 47.517 68.5888 48.4028 68.5888C50.9336 68.5888 53.2747 68.0779 55.4259 67.0561L78.7731 50.771C78.0139 50.0047 77.0648 49.6215 75.9259 49.6215C75.1667 49.6215 74.4707 49.8131 73.838 50.1963L62.0694 56.5187L61.1204 57.0935C61.1204 57.2212 61.1204 57.3489 61.1204 57.4766C61.1204 58.3707 60.6775 58.8178 59.7917 58.8178L51.6296 58.4346C51.1235 58.4346 50.554 58.4346 49.9213 58.4346C48.1497 58.4346 46.3781 58.4984 44.6065 58.6262C44.6065 58.7539 44.5432 58.8178 44.4167 58.8178C43.5309 58.8178 43.088 58.3707 43.088 57.4766C43.088 56.5826 43.4676 56.1355 44.2269 56.1355C46.125 55.8801 48.0232 55.7523 49.9213 55.7523C50.554 55.7523 51.1867 55.7523 51.8194 55.7523L58.2732 55.9439C58.0201 54.7944 57.3557 53.8045 56.2801 52.9743C55.2045 52.1441 54.034 51.729 52.7685 51.729H43.2778C41.3796 51.729 39.5448 51.2819 37.7731 50.3878L36.8241 49.8131C34.9259 48.919 32.838 48.472 30.5602 48.472C27.3966 48.472 24.5494 49.4299 22.0185 51.3458L19.7407 53.4533ZM11.5787 50.5794H2.84722L6.26389 79.3178H20.3102L11.5787 50.5794ZM15.2801 77.6893C15.2801 77.6893 15.1061 77.8649 14.7581 78.2161C14.4101 78.5674 13.7299 78.743 12.7176 78.743C11.7052 78.743 10.8511 78.3917 10.1551 77.6893C9.45911 76.9868 9.11111 76.1246 9.11111 75.1028C9.11111 74.081 9.45911 73.2188 10.1551 72.5164C10.8511 71.8139 11.7052 71.4626 12.7176 71.4626C13.7299 71.4626 14.5841 71.8139 15.2801 72.5164C15.9761 73.2188 16.3241 74.081 16.3241 75.1028C16.3241 76.1246 15.9761 76.9868 15.2801 77.6893ZM13.6667 75.1028C13.6667 75.1028 13.6667 74.9431 13.6667 74.6238C13.6667 74.3045 13.3503 74.1449 12.7176 74.1449C12.0849 74.1449 11.7685 74.4642 11.7685 75.1028C11.7685 75.7414 12.0849 76.0607 12.7176 76.0607C13.3503 76.0607 13.6667 75.7414 13.6667 75.1028ZM32.4583 22.4159C31.5725 22.4159 31.1296 21.9688 31.1296 21.0748C31.1296 20.1807 31.5725 19.7336 32.4583 19.7336H35.6852V1.53271C35.6852 0.638626 36.1281 0.191589 37.0139 0.191589C37.8997 0.191589 38.3426 0.638626 38.3426 1.53271V19.7336H41.7593C42.6451 19.7336 43.088 20.1807 43.088 21.0748C43.088 21.9688 42.6451 22.4159 41.7593 22.4159H41.5694L42.7083 26.0561C42.7083 26.1838 42.7083 26.3115 42.7083 26.4393V37.1682C42.7083 38.4455 42.2654 39.5312 41.3796 40.4252C40.4938 41.3193 39.4815 41.7664 38.3426 41.7664H35.875C34.6096 41.7664 33.5656 41.3193 32.7431 40.4252C31.9205 39.5312 31.5093 38.4455 31.5093 37.1682V26.4393C31.5093 26.4393 31.5093 26.4073 31.5093 26.3435C31.5093 26.2796 31.5093 26.1838 31.5093 26.0561L32.4583 22.4159ZM34.1667 26.6308V37.1682C34.1667 38.4455 34.7361 39.0841 35.875 39.0841H38.3426C39.4815 39.0841 40.0509 38.4455 40.0509 37.1682V26.6308L38.912 22.4159H35.3056L34.1667 26.6308ZM47.8333 18.3925C46.3148 17.6262 44.9861 16.3489 43.8472 14.5607C42.7083 12.7726 42.1389 10.9844 42.1389 9.19626C42.1389 7.4081 42.6767 5.65187 43.7523 3.92757C44.8279 2.20327 46.1883 0.957939 47.8333 0.191589C47.9599 0.063858 48.1497 0 48.4028 0C49.2886 0 49.7315 0.447037 49.7315 1.34112V5.55608L52.3889 7.28037L54.8565 5.74767V1.34112C54.8565 0.830215 55.0463 0.447037 55.4259 0.191589C55.679 0.063858 55.9321 0 56.1852 0C56.3117 0 56.5015 0.063858 56.7546 0.191589C57.5139 0.574768 58.2099 1.08567 58.8426 1.7243C59.4753 2.36293 60.0448 3.09735 60.5509 3.92757C61.0571 4.75779 61.4684 5.61993 61.7847 6.51402C62.1011 7.4081 62.2593 8.30218 62.2593 9.19626C62.2593 10.9844 61.6898 12.7726 60.5509 14.5607C59.412 16.3489 58.0833 17.6262 56.5648 18.3925V37.3598C56.5648 37.8707 56.4383 38.4136 56.1852 38.9883C55.9321 39.5631 55.6157 40.0421 55.2361 40.4252C54.8565 40.8084 54.4136 41.1277 53.9074 41.3832C53.4012 41.6386 52.8318 41.7664 52.1991 41.7664C50.9336 41.7664 49.8897 41.3193 49.0671 40.4252C48.2446 39.5312 47.8333 38.5093 47.8333 37.3598V18.3925ZM47.0741 3.83177C45.5556 5.36449 44.7963 7.15265 44.7963 9.19626C44.7963 10.6012 45.2708 12.0062 46.2199 13.4112C47.169 14.8162 48.3395 15.7103 49.7315 16.0935C50.2377 16.3489 50.4907 16.796 50.4907 17.4346V37.3598C50.4907 38.5093 51.0602 39.0841 52.1991 39.0841C53.338 39.0841 53.9074 38.5093 53.9074 37.3598V17.4346C53.9074 16.796 54.2238 16.3489 54.8565 16.0935C55.7423 15.838 56.5332 15.3271 57.2292 14.5607C57.9252 13.7944 58.4946 12.9322 58.9375 11.9743C59.3804 11.0163 59.6019 10.0903 59.6019 9.19626C59.6019 7.15265 58.9059 5.42834 57.5139 4.02336V6.32243C57.5139 6.83333 57.3241 7.21651 56.9444 7.47196L52.9583 10.1542C52.7052 10.2819 52.4522 10.3458 52.1991 10.3458C51.946 10.3458 51.6929 10.2819 51.4398 10.1542L47.6435 7.28037C47.2639 7.02492 47.0741 6.64175 47.0741 6.13084V3.83177Z" fill="#891609"/>
</svg>
