<svg width="82" height="82" viewBox="0 0 82 82" fill="none" xmlns="http://www.w3.org/2000/svg">
<path d="M0.170833 56.8875C0.0569444 55.9764 0 55.2361 0 54.6667C0 54.0972 0.0569444 53.3569 0.170833 52.4458C0.170833 51.7625 0.5125 51.3639 1.19583 51.25L5.97917 50.225C6.09306 49.4278 6.32083 48.6306 6.6625 47.8333L2.90417 44.5875C2.44861 44.1319 2.39167 43.5625 2.73333 42.8792C3.30278 41.5125 3.98611 40.2597 4.78333 39.1208C5.23889 38.5514 5.75139 38.3806 6.32083 38.6083L10.9333 40.1458C11.5028 39.4625 12.1292 38.8361 12.8125 38.2667L11.275 33.6542C11.0472 33.0847 11.2181 32.5722 11.7875 32.1167C12.9264 31.3194 14.1792 30.6361 15.5458 30.0667C16.2292 29.725 16.7986 29.7819 17.2542 30.2375L20.5 33.9958C21.2972 33.6542 22.0944 33.4264 22.8917 33.3125L23.9167 28.5292C24.0306 27.8458 24.4292 27.5042 25.1125 27.5042C26.5931 27.3903 28.0736 27.3903 29.5542 27.5042C30.2375 27.5042 30.6361 27.8458 30.75 28.5292L31.775 33.3125C32.5722 33.4264 33.3694 33.6542 34.1667 33.9958L37.4125 30.2375C37.8681 29.7819 38.4375 29.725 39.1208 30.0667C40.4875 30.6361 41.7403 31.3194 42.8792 32.1167C43.4486 32.5722 43.6194 33.0847 43.3917 33.6542L41.8542 38.2667C42.5375 38.8361 43.1639 39.4625 43.7333 40.1458L48.3458 38.6083C48.9153 38.3806 49.4278 38.5514 49.8833 39.1208C50.6806 40.2597 51.3639 41.5125 51.9333 42.8792C52.275 43.5625 52.2181 44.1319 51.7625 44.5875L48.0042 47.8333C48.3458 48.6306 48.5736 49.4278 48.6875 50.225L53.4708 51.25C54.1542 51.3639 54.4958 51.7625 54.4958 52.4458C54.6097 53.3569 54.6667 54.0972 54.6667 54.6667C54.6667 55.2361 54.6097 55.9764 54.4958 56.8875C54.4958 57.5708 54.1542 57.9694 53.4708 58.0833L48.6875 59.1083C48.5736 59.9056 48.3458 60.7028 48.0042 61.5L51.7625 64.7458C52.2181 65.2014 52.275 65.7708 51.9333 66.4542C51.3639 67.8208 50.6806 69.0736 49.8833 70.2125C49.4278 70.7819 48.9153 70.9528 48.3458 70.725L43.7333 69.1875C43.1639 69.8708 42.5375 70.4972 41.8542 71.0667L43.3917 75.6792C43.6194 76.2486 43.4486 76.7611 42.8792 77.2167C41.7403 78.0139 40.4875 78.6972 39.1208 79.2667C38.4375 79.6083 37.8681 79.5514 37.4125 79.0958L34.1667 75.3375C33.3694 75.6792 32.5722 75.9069 31.775 76.0208L30.75 80.8042C30.6361 81.4875 30.2375 81.8292 29.5542 81.8292C28.6431 81.9431 27.9028 82 27.3333 82C26.7639 82 26.0236 81.9431 25.1125 81.8292C24.4292 81.8292 24.0306 81.4875 23.9167 80.8042L22.8917 76.0208C22.0944 75.9069 21.2972 75.6792 20.5 75.3375L17.2542 79.0958C16.7986 79.5514 16.2292 79.6083 15.5458 79.2667C14.1792 78.6972 12.9264 78.0139 11.7875 77.2167C11.2181 76.7611 11.0472 76.2486 11.275 75.6792L12.8125 71.0667C12.1292 70.4972 11.5028 69.8708 10.9333 69.1875L6.32083 70.725C5.75139 70.9528 5.23889 70.7819 4.78333 70.2125C3.98611 69.0736 3.30278 67.8208 2.73333 66.4542C2.39167 65.7708 2.44861 65.2014 2.90417 64.7458L6.6625 61.5C6.32083 60.7028 6.09306 59.9056 5.97917 59.1083L1.19583 58.0833C0.5125 57.9694 0.170833 57.5708 0.170833 56.8875ZM2.73333 53.6417C2.73333 53.9833 2.73333 54.325 2.73333 54.6667C2.73333 54.8944 2.73333 55.2361 2.73333 55.6917L7.34583 56.7167C8.02917 56.8306 8.42778 57.1722 8.54167 57.7417C8.65556 58.9944 8.94028 60.2472 9.39583 61.5C9.62361 62.0694 9.50972 62.525 9.05417 62.8667L5.6375 66.1125C5.86528 66.6819 6.15 67.2514 6.49167 67.8208L11.1042 66.2833C11.6736 66.1694 12.1292 66.3403 12.4708 66.7958C13.2681 67.8208 14.1792 68.7319 15.2042 69.5292C15.6597 69.8708 15.8306 70.3264 15.7167 70.8958L14.1792 75.5083C14.7486 75.85 15.3181 76.1347 15.8875 76.3625L19.1333 72.9458C19.475 72.4903 19.9306 72.3764 20.5 72.6042C21.7528 73.0597 23.0056 73.3444 24.2583 73.4583C24.8278 73.5722 25.1694 73.9708 25.2833 74.6542L26.3083 79.2667C26.9917 79.2667 27.675 79.2667 28.3583 79.2667L29.3833 74.6542C29.3833 74.3125 29.4972 74.0563 29.725 73.8854C29.9528 73.7146 30.1806 73.5722 30.4083 73.4583C31.6611 73.3444 32.9139 73.0597 34.1667 72.6042C34.7361 72.3764 35.1917 72.4903 35.5333 72.9458L38.7792 76.3625C39.3486 76.1347 39.9181 75.85 40.4875 75.5083L38.95 70.8958C38.8361 70.3264 39.0069 69.8708 39.4625 69.5292C40.4875 68.7319 41.3986 67.8208 42.1958 66.7958C42.5375 66.3403 42.9931 66.1694 43.5625 66.2833L48.175 67.8208C48.5167 67.2514 48.8014 66.6819 49.0292 66.1125L45.6125 62.8667C45.1569 62.525 45.0431 62.0694 45.2708 61.5C45.7264 60.2472 46.0111 58.9944 46.125 57.7417C46.2389 57.1722 46.6375 56.8306 47.3208 56.7167L51.9333 55.6917C51.9333 55.35 51.9333 55.0368 51.9333 54.7521C51.9333 54.4674 51.9333 54.0972 51.9333 53.6417L47.3208 52.6167C46.6375 52.5028 46.2389 52.1611 46.125 51.5917C46.0111 50.3389 45.7264 49.0861 45.2708 47.8333C45.0431 47.2639 45.1569 46.8083 45.6125 46.4667L49.0292 43.2208C48.8014 42.6514 48.5167 42.0819 48.175 41.5125L43.5625 43.05C42.9931 43.1639 42.5375 42.9931 42.1958 42.5375C41.3986 41.5125 40.4875 40.6014 39.4625 39.8042C39.0069 39.4625 38.8361 39.0069 38.95 38.4375L40.4875 33.825C39.9181 33.4833 39.3486 33.1986 38.7792 32.9708L35.5333 36.3875C35.1917 36.8431 34.7361 36.9569 34.1667 36.7292C32.9139 36.2736 31.6611 35.9889 30.4083 35.875C29.8389 35.7611 29.4972 35.3625 29.3833 34.6792L28.3583 30.0667C27.675 30.0667 26.9917 30.0667 26.3083 30.0667L25.2833 34.6792C25.1694 35.3625 24.8278 35.7611 24.2583 35.875C23.0056 35.9889 21.7528 36.2736 20.5 36.7292C19.9306 36.9569 19.475 36.8431 19.1333 36.3875L15.8875 32.9708C15.3181 33.1986 14.7486 33.4833 14.1792 33.825L15.7167 38.4375C15.8306 39.0069 15.6597 39.4625 15.2042 39.8042C14.1792 40.6014 13.2681 41.5125 12.4708 42.5375C12.1292 42.9931 11.6736 43.1639 11.1042 43.05L6.49167 41.5125C6.15 42.0819 5.86528 42.6514 5.6375 43.2208L9.05417 46.4667C9.50972 46.8083 9.62361 47.2639 9.39583 47.8333C8.94028 49.0861 8.65556 50.3389 8.54167 51.5917C8.42778 52.1611 8.02917 52.5028 7.34583 52.6167L2.73333 53.6417ZM71.4083 19.475L67.65 20.6708C67.5361 21.0125 67.3653 21.2972 67.1375 21.525L69.0167 25.1125C69.3583 25.5681 69.3014 26.0236 68.8458 26.4792C68.0486 27.5042 67.1375 28.4153 66.1125 29.2125C65.6569 29.6681 65.2014 29.725 64.7458 29.3833L61.1583 27.5042C60.9306 27.7319 60.6458 27.9028 60.3042 28.0167L59.1083 31.775C58.8806 32.3444 58.4819 32.6292 57.9125 32.6292C57.2292 32.7431 56.6028 32.8 56.0333 32.8C55.4639 32.8 54.8375 32.7431 54.1542 32.6292C53.5847 32.6292 53.1861 32.3444 52.9583 31.775L51.7625 28.0167C51.4208 27.9028 51.1361 27.7319 50.9083 27.5042L47.3208 29.3833C46.8653 29.725 46.4097 29.6681 45.9542 29.2125C44.9292 28.4153 44.0181 27.5042 43.2208 26.4792C42.7653 26.0236 42.7083 25.5681 43.05 25.1125L44.9292 21.525C44.7014 21.2972 44.5306 21.0125 44.4167 20.6708L40.6583 19.475C40.0889 19.2472 39.8042 18.8486 39.8042 18.2792C39.6903 17.5958 39.6333 16.9694 39.6333 16.4C39.6333 15.8306 39.6903 15.2042 39.8042 14.5208C39.8042 13.9514 40.0889 13.5528 40.6583 13.325L44.4167 12.1292C44.5306 11.7875 44.7014 11.5028 44.9292 11.275L43.05 7.6875C42.7083 7.23194 42.7653 6.77639 43.2208 6.32083C44.0181 5.29583 44.9292 4.38472 45.9542 3.5875C46.4097 3.24583 46.8653 3.18889 47.3208 3.41666L50.9083 5.29583C51.1361 5.06805 51.4208 4.89722 51.7625 4.78333L52.9583 1.025C53.1861 0.455559 53.5847 0.17083 54.1542 0.17083C55.4069 -0.0569458 56.6597 -0.0569458 57.9125 0.17083C58.4819 0.17083 58.8806 0.455559 59.1083 1.025L60.3042 4.78333C60.6458 4.89722 60.9306 5.06805 61.1583 5.29583L64.7458 3.41666C65.2014 3.18889 65.6569 3.24583 66.1125 3.5875C67.1375 4.38472 68.0486 5.29583 68.8458 6.32083C69.3014 6.77639 69.3583 7.23194 69.0167 7.6875L67.1375 11.275C67.3653 11.5028 67.5361 11.7875 67.65 12.1292L71.4083 13.325C71.9778 13.5528 72.2625 13.9514 72.2625 14.5208C72.3764 15.2042 72.4333 15.8306 72.4333 16.4C72.4333 16.9694 72.3764 17.5958 72.2625 18.2792C72.2625 18.8486 71.9778 19.2472 71.4083 19.475ZM66.1125 18.2792L69.7 17.0833C69.7 16.8556 69.7 16.6278 69.7 16.4C69.7 16.1722 69.7 15.9444 69.7 15.7167L66.1125 14.5208C65.6569 14.4069 65.3722 14.1222 65.2583 13.6667C65.0306 12.9833 64.7458 12.4139 64.4042 11.9583C64.1764 11.5028 64.1764 11.0472 64.4042 10.5917L66.1125 7.34583C65.8847 6.89027 65.5431 6.54861 65.0875 6.32083L61.8417 8.02917C61.3861 8.25694 60.9306 8.25694 60.475 8.02917C60.0194 7.6875 59.45 7.40278 58.7667 7.175C58.3111 7.06111 58.0264 6.77639 57.9125 6.32083L56.7167 2.73333C56.2611 2.73333 55.8056 2.73333 55.35 2.73333L54.1542 6.32083C54.0403 6.77639 53.7556 7.06111 53.3 7.175C52.6167 7.40278 52.0472 7.6875 51.5917 8.02917C51.1361 8.25694 50.6806 8.25694 50.225 8.02917L46.9792 6.32083C46.5236 6.54861 46.1819 6.89027 45.9542 7.34583L47.6625 10.5917C47.8903 11.0472 47.8903 11.5028 47.6625 11.9583C47.3208 12.4139 47.0361 12.9833 46.8083 13.6667C46.6944 14.1222 46.4097 14.4069 45.9542 14.5208L42.3667 15.7167C42.3667 15.9444 42.3667 16.1722 42.3667 16.4C42.3667 16.6278 42.3667 16.8556 42.3667 17.0833L45.9542 18.2792C46.4097 18.3931 46.6944 18.6778 46.8083 19.1333C47.0361 19.8167 47.3208 20.3861 47.6625 20.8417C47.8903 21.2972 47.8903 21.7528 47.6625 22.2083L45.9542 25.4542C46.1819 25.9097 46.5236 26.2514 46.9792 26.4792L50.225 24.7708C50.6806 24.5431 51.1361 24.5431 51.5917 24.7708C52.0472 25.1125 52.6167 25.3972 53.3 25.625C53.7556 25.7389 54.0403 26.0236 54.1542 26.4792L55.35 30.0667C55.8056 30.0667 56.2611 30.0667 56.7167 30.0667L57.9125 26.4792C58.0264 26.0236 58.3111 25.7389 58.7667 25.625C59.45 25.3972 60.0194 25.1125 60.475 24.7708C60.9306 24.5431 61.3861 24.5431 61.8417 24.7708L65.0875 26.4792C65.5431 26.2514 65.8847 25.9097 66.1125 25.4542L64.4042 22.2083C64.1764 21.7528 64.1764 21.2972 64.4042 20.8417C64.7458 20.3861 65.0306 19.8167 65.2583 19.1333C65.3722 18.6778 65.6569 18.3931 66.1125 18.2792ZM80.975 45.1C81.5444 45.2139 81.8292 45.5556 81.8292 46.125C81.9431 46.8083 82 47.3778 82 47.8333C82 48.2889 81.9431 48.8583 81.8292 49.5417C81.8292 50.1111 81.5444 50.4528 80.975 50.5667L78.5833 51.4208C78.4694 51.7625 78.3556 52.1611 78.2417 52.6167L79.2667 54.8375C79.4944 55.2931 79.4375 55.7486 79.0958 56.2042C78.4125 57.1153 77.6153 57.9125 76.7042 58.5958C76.2486 58.9375 75.7931 58.9944 75.3375 58.7667L73.1167 57.7417C72.775 57.8556 72.3764 57.9694 71.9208 58.0833L71.0667 60.475C70.9528 61.0444 70.6111 61.3292 70.0417 61.3292C69.3583 61.4431 68.7889 61.5 68.3333 61.5C67.8778 61.5 67.3083 61.4431 66.625 61.3292C66.0556 61.3292 65.7139 61.0444 65.6 60.475L64.7458 58.0833C64.4042 57.9694 64.0056 57.8556 63.55 57.7417L61.3292 58.7667C60.8736 58.9944 60.4181 58.9375 59.9625 58.5958C59.0514 57.9125 58.2542 57.1153 57.5708 56.2042C57.2292 55.7486 57.1722 55.2931 57.4 54.8375L58.425 52.6167C58.3111 52.275 58.1972 51.8764 58.0833 51.4208L55.6917 50.5667C55.1222 50.4528 54.8375 50.1111 54.8375 49.5417C54.7236 48.8583 54.6667 48.2889 54.6667 47.8333C54.6667 47.3778 54.7236 46.8083 54.8375 46.125C54.8375 45.5556 55.1222 45.2139 55.6917 45.1L58.0833 44.2458C58.1972 43.9042 58.3111 43.5056 58.425 43.05L57.4 40.8292C57.1722 40.3736 57.2292 39.9181 57.5708 39.4625C58.2542 38.5514 59.0514 37.7542 59.9625 37.0708C60.4181 36.7292 60.8736 36.6722 61.3292 36.9L63.55 37.925C63.8917 37.8111 64.2903 37.6972 64.7458 37.5833L65.6 35.1917C65.7139 34.6222 66.0556 34.3375 66.625 34.3375C67.7639 34.1097 68.9028 34.1097 70.0417 34.3375C70.6111 34.3375 70.9528 34.6222 71.0667 35.1917L71.9208 37.5833C72.2625 37.6972 72.6611 37.8111 73.1167 37.925L75.3375 36.9C75.7931 36.6722 76.2486 36.7292 76.7042 37.0708C77.6153 37.7542 78.4125 38.5514 79.0958 39.4625C79.4375 39.9181 79.4944 40.3736 79.2667 40.8292L78.2417 43.05C78.3556 43.3917 78.4694 43.7903 78.5833 44.2458L80.975 45.1ZM79.2667 48.3458C79.2667 48.1181 79.2667 47.9472 79.2667 47.8333C79.2667 47.7194 79.2667 47.5486 79.2667 47.3208L77.0458 46.6375C76.5903 46.4097 76.3056 46.0681 76.1917 45.6125C76.0778 44.9292 75.85 44.3028 75.5083 43.7333C75.2806 43.3917 75.2236 42.9931 75.3375 42.5375L76.3625 40.4875C76.1347 40.2597 75.9069 40.0319 75.6792 39.8042L73.6292 40.6583C73.1736 40.8861 72.775 40.8861 72.4333 40.6583C71.8639 40.3167 71.2375 40.0889 70.5542 39.975C70.0986 39.8611 69.7569 39.5764 69.5292 39.1208L68.8458 36.9C68.5042 36.9 68.1625 36.9 67.8208 36.9L67.1375 39.1208C66.9097 39.5764 66.5681 39.8611 66.1125 39.975C65.4292 40.0889 64.8028 40.3167 64.2333 40.6583C63.8917 40.8861 63.4931 40.8861 63.0375 40.6583L60.9875 39.8042C60.7597 40.0319 60.5319 40.2597 60.3042 40.4875L61.1583 42.5375C61.3861 42.9931 61.3861 43.3917 61.1583 43.7333C60.8167 44.3028 60.5889 44.9292 60.475 45.6125C60.3611 46.0681 60.0764 46.4097 59.6208 46.6375L57.4 47.3208C57.4 47.5486 57.4 47.7194 57.4 47.8333C57.4 47.9472 57.4 48.1181 57.4 48.3458L59.6208 49.0292C60.0764 49.2569 60.3611 49.5986 60.475 50.0542C60.5889 50.7375 60.8167 51.3639 61.1583 51.9333C61.3861 52.275 61.4431 52.6736 61.3292 53.1292L60.3042 55.1792C60.5319 55.4069 60.7597 55.6347 60.9875 55.8625L63.0375 54.8375C63.4931 54.7236 63.8917 54.7806 64.2333 55.0083C64.8028 55.35 65.4292 55.5778 66.1125 55.6917C66.5681 55.8056 66.9097 56.0903 67.1375 56.5458L67.8208 58.7667C68.1625 58.7667 68.5042 58.7667 68.8458 58.7667L69.5292 56.5458C69.7569 56.0903 70.0986 55.8056 70.5542 55.6917C71.2375 55.5778 71.8639 55.35 72.4333 55.0083C72.775 54.7806 73.1736 54.7236 73.6292 54.8375L75.6792 55.8625C75.9069 55.6347 76.1347 55.4069 76.3625 55.1792L75.5083 53.1292C75.2806 52.6736 75.2806 52.275 75.5083 51.9333C75.85 51.3639 76.0778 50.7375 76.1917 50.0542C76.3056 49.5986 76.5903 49.2569 77.0458 49.0292L79.2667 48.3458ZM37.925 65.2583C37.925 65.2583 37.1847 65.9986 35.7042 67.4792C34.2236 68.9597 31.4333 69.7 27.3333 69.7C23.2333 69.7 19.7028 68.2194 16.7417 65.2583C13.7806 62.2972 12.3 58.7667 12.3 54.6667C12.3 50.5667 13.7806 47.0361 16.7417 44.075C19.7028 41.1139 23.2333 39.6333 27.3333 39.6333C31.4333 39.6333 34.9639 41.1139 37.925 44.075C40.8861 47.0361 42.3667 50.5667 42.3667 54.6667C42.3667 58.7667 40.8861 62.2972 37.925 65.2583ZM36.0458 45.9542C36.0458 45.9542 35.4479 45.3563 34.2521 44.1604C33.0563 42.9646 30.75 42.3667 27.3333 42.3667C23.9167 42.3667 21.0125 43.5625 18.6208 45.9542C16.2292 48.3458 15.0333 51.25 15.0333 54.6667C15.0333 58.0833 16.2292 60.9875 18.6208 63.3792C21.0125 65.7708 23.9167 66.9667 27.3333 66.9667C30.75 66.9667 33.6542 65.7708 36.0458 63.3792C38.4375 60.9875 39.6333 58.0833 39.6333 54.6667C39.6333 51.25 38.4375 48.3458 36.0458 45.9542ZM0 31.9458C3.41667 27.8458 7.51667 24.6854 12.3 22.4646C17.0833 20.2438 22.0944 19.1333 27.3333 19.1333C27.9028 19.1333 28.6431 19.1903 29.5542 19.3042L27.675 17.425L29.725 15.375L33.825 19.475C34.3944 20.1583 34.3944 20.8417 33.825 21.525L29.725 25.625L27.675 23.575L29.3833 21.8667C28.4722 21.8667 27.7889 21.8667 27.3333 21.8667C17.0833 21.8667 8.65556 25.7958 2.05 33.6542L0 31.9458ZM51.1646 11.5312C51.1646 11.5312 51.492 11.2038 52.1469 10.549C52.8017 9.8941 54.0972 9.56667 56.0333 9.56667C57.9694 9.56667 59.5924 10.2215 60.9021 11.5312C62.2118 12.841 62.8667 14.4639 62.8667 16.4C62.8667 18.3361 62.2118 19.959 60.9021 21.2687C59.5924 22.5785 57.9694 23.2333 56.0333 23.2333C54.0972 23.2333 52.4743 22.5785 51.1646 21.2687C49.8549 19.959 49.2 18.3361 49.2 16.4C49.2 14.4639 49.8549 12.841 51.1646 11.5312ZM53.1292 19.3042C53.1292 19.3042 53.3285 19.5035 53.7271 19.9021C54.1257 20.3007 54.8944 20.5 56.0333 20.5C57.1722 20.5 58.1403 20.1014 58.9375 19.3042C59.7347 18.5069 60.1333 17.5389 60.1333 16.4C60.1333 15.2611 59.7347 14.2931 58.9375 13.4958C58.1403 12.6986 57.1722 12.3 56.0333 12.3C54.8944 12.3 53.9264 12.6986 53.1292 13.4958C52.3319 14.2931 51.9333 15.2611 51.9333 16.4C51.9333 17.5389 52.3319 18.5069 53.1292 19.3042ZM64.4896 43.9896C64.4896 43.9896 64.7601 43.7191 65.301 43.1781C65.842 42.6372 66.8528 42.3667 68.3333 42.3667C69.8139 42.3667 71.0951 42.9076 72.1771 43.9896C73.259 45.0715 73.8 46.3528 73.8 47.8333C73.8 49.3139 73.259 50.5951 72.1771 51.6771C71.0951 52.759 69.8139 53.3 68.3333 53.3C66.8528 53.3 65.5715 52.759 64.4896 51.6771C63.4076 50.5951 62.8667 49.3139 62.8667 47.8333C62.8667 46.3528 63.4076 45.0715 64.4896 43.9896ZM66.3688 49.7979C66.3688 49.7979 66.4969 49.926 66.7531 50.1823C67.0094 50.4385 67.5361 50.5667 68.3333 50.5667C69.1306 50.5667 69.7854 50.3104 70.2979 49.7979C70.8104 49.2854 71.0667 48.6306 71.0667 47.8333C71.0667 47.0361 70.8104 46.3812 70.2979 45.8688C69.7854 45.3563 69.1306 45.1 68.3333 45.1C67.5361 45.1 66.8812 45.3563 66.3688 45.8688C65.8562 46.3812 65.6 47.0361 65.6 47.8333C65.6 48.6306 65.8562 49.2854 66.3688 49.7979ZM80.975 4.1L80.2917 6.83334L76.875 6.15C78.4694 9.33889 79.2667 12.7556 79.2667 16.4C79.2667 21.8667 77.5583 26.7069 74.1417 30.9208L72.0917 29.2125C75.0528 25.4542 76.5333 21.1833 76.5333 16.4C76.5333 13.325 75.85 10.3639 74.4833 7.51666L73.8 11.275L71.0667 10.5917L72.4333 3.75833C72.6611 2.96111 73.2306 2.61945 74.1417 2.73333L80.975 4.1Z" fill="#891609"/>
</svg>
