<svg width="67" height="82" viewBox="0 0 67 82" fill="none" xmlns="http://www.w3.org/2000/svg">
<path d="M9.6738 57.4361C6.21034 53.7034 3.70232 49.6696 2.14973 45.3348C0.716578 41.7225 0 37.9295 0 33.9559C0 33.2335 0 32.511 0 31.7885C0.238859 28.2966 1.37344 24.3532 3.40374 19.9582C5.43405 15.5631 7.70321 12.1013 10.2112 9.57269C12.8387 6.92365 16.4514 4.66593 21.0495 2.79956C25.6475 0.933189 29.7977 0 33.5 0C37.2023 0 41.3525 0.933189 45.9505 2.79956C50.5486 4.66593 54.1613 6.92365 56.7888 9.57269C59.2968 12.1013 61.566 15.5631 63.5963 19.9582C65.6266 24.3532 66.7611 28.2966 67 31.7885C67 32.511 67 33.2335 67 33.9559C67 37.9295 66.2834 41.7225 64.8503 45.3348C63.2977 49.6696 60.7897 53.7034 57.3262 57.4361L34.3957 81.6388C34.1569 81.8796 33.8583 82 33.5 82C33.1417 82 32.8431 81.8796 32.6043 81.6388L9.6738 57.4361ZM2.50802 31.9692C2.50802 32.6916 2.50802 33.3539 2.50802 33.9559C2.50802 37.5683 3.16488 41.0602 4.47861 44.4317C5.91176 48.4053 8.24064 52.138 11.4652 55.63L33.5 78.9295L55.5348 55.63C58.7594 52.138 61.0882 48.4053 62.5214 44.4317C63.8351 41.0602 64.492 37.5683 64.492 33.9559C64.492 33.3539 64.492 32.6916 64.492 31.9692C64.2531 29.8018 63.6858 27.4236 62.7901 24.8348C61.8944 22.246 60.7598 19.7474 59.3864 17.3392C58.0129 14.931 56.5499 12.9442 54.9973 11.3789C52.6087 8.97063 49.2946 6.89354 45.0548 5.14758C40.8151 3.40162 36.9635 2.52863 33.5 2.52863C30.0365 2.52863 26.1849 3.40162 21.9452 5.14758C17.7054 6.89354 14.3913 8.97063 12.0027 11.3789C9.61408 13.7871 7.49421 17.0081 5.64305 21.0419C3.79189 25.0756 2.74688 28.7181 2.50802 31.9692ZM50.25 49.3084C50.25 49.3084 49.1005 50.4824 46.8015 52.8304C44.5024 55.1784 40.0686 56.3524 33.5 56.3524C26.9314 56.3524 21.348 54.0044 16.75 49.3084C12.152 44.6123 9.85294 38.9831 9.85294 32.4207C9.85294 25.8583 12.152 20.2592 16.75 15.6234C21.348 10.9875 26.9314 8.6696 33.5 8.6696C40.0686 8.6696 45.652 10.9875 50.25 15.6234C54.848 20.2592 57.1471 25.8583 57.1471 32.4207C57.1471 38.9831 54.848 44.6123 50.25 49.3084ZM33.5 11.1982C29.6783 11.1982 26.1551 12.1314 22.9305 13.9978C19.7059 15.8642 17.1381 18.453 15.2273 21.7643C13.3164 25.0756 12.361 28.6579 12.361 32.511C12.361 38.4112 14.4211 43.4383 18.5414 47.5925C22.6618 51.7467 27.6479 53.8238 33.5 53.8238C39.3521 53.8238 44.3382 51.7467 48.4586 47.5925C52.5789 43.4383 54.639 38.4112 54.639 32.511C54.639 26.6109 52.5789 21.5837 48.4586 17.4295C44.3382 13.2753 39.3521 11.1982 33.5 11.1982ZM22.393 33.9559C21.6765 33.8355 21.3182 33.4141 21.3182 32.6916C21.3182 31.8488 21.7362 31.4273 22.5722 31.4273H24.9011V17.7004C24.9011 16.8576 25.3191 16.4361 26.1551 16.4361C26.9911 16.4361 27.4091 16.8576 27.4091 17.7004V31.4273H29.738C30.574 31.4273 30.992 31.8488 30.992 32.6916C30.992 33.4141 30.6337 33.8355 29.9171 33.9559L30.6337 36.4846C30.6337 36.4846 30.6337 36.5448 30.6337 36.6652V44.9736C30.6337 46.0573 30.2754 46.9604 29.5588 47.6828C28.8422 48.4053 28.0062 48.7665 27.0508 48.7665H25.2594C24.1845 48.7665 23.2888 48.4053 22.5722 47.6828C21.8556 46.9604 21.4973 46.0573 21.4973 44.9736V36.6652C21.4973 36.5448 21.4973 36.4846 21.4973 36.4846L22.393 33.9559ZM24.0053 36.8458V44.9736C24.0053 45.8164 24.4234 46.2379 25.2594 46.2379H27.0508C27.7674 46.2379 28.1257 45.8164 28.1257 44.9736V36.8458L27.2299 33.9559H24.9011L24.0053 36.8458ZM34.2166 30.7048C33.6194 30.3436 33.0521 29.8921 32.5147 29.3502C31.9773 28.8084 31.4996 28.2364 31.0816 27.6344C30.6635 27.0323 30.365 26.37 30.1858 25.6476C30.0067 24.9251 29.9171 24.2026 29.9171 23.4802C29.9171 22.1557 30.3351 20.801 31.1711 19.4163C32.0071 18.0316 33.0223 17.0382 34.2166 16.4361C34.336 16.3157 34.5152 16.2555 34.754 16.2555C35.59 16.2555 36.008 16.6769 36.008 17.5198V20.5903L37.7995 21.8546L39.4118 20.7709V17.5198C39.4118 17.0382 39.6506 16.6769 40.1283 16.4361C40.2478 16.3157 40.4269 16.2555 40.6658 16.2555C40.9046 16.2555 41.1435 16.3157 41.3824 16.4361C42.5766 17.0382 43.5918 18.0316 44.4278 19.4163C45.2638 20.801 45.6818 22.1557 45.6818 23.4802C45.6818 26.7313 44.2487 29.1395 41.3824 30.7048V45.1542C41.3824 46.1175 41.0241 46.9604 40.3075 47.6828C39.5909 48.4053 38.7549 48.7665 37.7995 48.7665C36.844 48.7665 36.008 48.4053 35.2914 47.6828C34.5749 46.9604 34.2166 46.1175 34.2166 45.1542V30.7048ZM33.5 20.0485C32.664 21.1322 32.246 22.2761 32.246 23.4802H32.4251C32.4251 24.5639 32.7536 25.6175 33.4104 26.641C34.0673 27.6645 34.8734 28.3568 35.8289 28.7181C36.426 28.8385 36.7246 29.1997 36.7246 29.8018V45.1542C36.7246 45.8767 37.0829 46.2379 37.7995 46.2379C38.516 46.2379 38.8743 45.8767 38.8743 45.1542V29.8018C38.8743 29.1997 39.1132 28.8385 39.5909 28.7181C40.5463 28.3568 41.3824 27.6645 42.0989 26.641C42.8155 25.6175 43.1738 24.5639 43.1738 23.4802C43.1738 22.1557 42.7558 21.0117 41.9198 20.0485V21.3128V21.4934C41.9198 21.8546 41.7406 22.1557 41.3824 22.3965L38.516 24.3833C38.2772 24.5037 38.0383 24.5639 37.7995 24.5639C37.5606 24.5639 37.3217 24.5037 37.0829 24.3833L34.0374 22.2159C33.6791 21.975 33.5 21.674 33.5 21.3128V20.0485Z" fill="#891609"/>
</svg>
