<svg width="22" height="16" viewBox="0 0 22 16" fill="none" xmlns="http://www.w3.org/2000/svg">
<path d="M21.5467 2.50361C21.2932 1.52462 20.5501 0.7529 19.6077 0.489281C17.8862 -3.4052e-08 10.9997 0 10.9997 0C10.9997 0 4.1136 0 2.39202 0.47075C1.46778 0.734083 0.70658 1.5248 0.453063 2.50361C0 4.2917 0 8.00004 0 8.00004C0 8.00004 0 11.727 0.453063 13.4964C0.70682 14.4752 1.44967 15.247 2.39216 15.5106C4.13171 16 11 16 11 16C11 16 17.8862 16 19.6077 15.5293C20.5502 15.2658 21.2932 14.4941 21.547 13.5152C21.9999 11.727 21.9999 8.01882 21.9999 8.01882C21.9999 8.01882 22.018 4.29167 21.5467 2.50361ZM8.80724 11.4259V4.5741L14.5336 7.99997L8.80724 11.4259Z" fill="#B5B6B8"/>
</svg>
