<svg width="18" height="16" viewBox="0 0 18 16" fill="none" xmlns="http://www.w3.org/2000/svg">
<path d="M2.75705 13.5346C2.95043 14.388 3.15798 14.7414 4.27294 14.5579C4.59737 14.5039 5.00255 14.4363 5.50123 14.5188C6.3286 14.6568 8.51601 17.4542 11.6264 14.9867C12.2335 14.56 12.565 14.324 13.743 14.5558C14.2573 14.656 14.9167 14.5501 15.239 13.5346C18.3126 12.9793 17.6524 11.2776 16.7316 11.129C15.1307 10.8666 14.0688 9.20763 13.9555 8.67858C14.0681 8.60889 14.3146 8.52285 14.4719 8.46881C17.068 7.56714 15.623 5.3727 13.8577 6.04966C13.9732 4.20082 14.0065 2.7196 12.4998 1.29955C10.8982 -0.20513 8.42392 -0.274106 6.80816 0.4377C3.99172 1.67358 4.01368 4.06784 4.13906 6.07811C3.01631 5.64718 2.25482 6.26797 2.13228 6.9044C1.94669 7.90775 2.90156 8.24481 3.47108 8.44605C3.67013 8.51645 4.00235 8.63378 4.05264 8.67147C3.99101 8.74329 3.634 10.3369 1.51955 11.0408C1.11578 11.1752 0.733977 11.3025 0.568221 11.6737C0.469759 11.8956 0.477551 12.1445 0.593722 12.4125C0.879191 13.0781 1.80714 13.364 2.75705 13.5346ZM4.96359 9.25599C5.43111 8.31023 4.81767 7.79469 3.82455 7.44341C3.61487 7.36945 3.22528 7.2315 3.17427 7.10493C3.19198 7.06013 3.33153 6.97053 3.46399 6.97053C3.50508 6.97337 3.62266 7.01888 3.70058 7.04804C7.05962 8.32517 3.09635 3.22661 7.23388 1.4119C8.50113 0.854402 10.5228 0.89849 11.7738 2.07535C13.7791 3.96402 12.2016 6.72165 13.0715 7.11915C13.6906 7.40145 14.2828 6.96697 14.4967 6.96057C14.6631 6.96057 14.8084 7.06013 14.8239 7.09568C14.8268 7.22155 14.3883 7.37372 14.1262 7.46474C12.9149 7.885 12.5367 8.38845 13.2216 9.64211C13.738 10.5879 14.8303 11.7647 16.2768 12.1217C15.2617 12.7105 14.491 12.1921 14.2658 13.0824C14.1496 13.5553 14.0752 13.5389 13.947 13.514C10.3584 12.8086 10.6035 16.5504 6.9562 14.1049C5.71162 13.2708 5.46865 13.3597 3.85005 13.5474C3.78205 13.2794 3.73813 12.9892 3.64392 12.8143C3.3882 12.3393 2.44183 12.5796 1.70018 12.1025C3.18844 11.5912 4.19502 10.9896 4.96359 9.25599Z" fill="white"/>
</svg>
