<svg width="16" height="16" viewBox="0 0 16 16" fill="none" xmlns="http://www.w3.org/2000/svg">
<path d="M14.3438 4.75C14.3646 4.8125 14.375 4.88021 14.375 4.95312C14.375 5.02604 14.375 5.09375 14.375 5.15625C14.375 6.23958 14.1667 7.34375 13.75 8.46875C13.3542 9.57292 12.7604 10.5729 11.9688 11.4688C11.1771 12.3646 10.1979 13.0938 9.03125 13.6562C7.88542 14.2188 6.55208 14.5 5.03125 14.5C4.11458 14.5 3.22917 14.3698 2.375 14.1094C1.52083 13.849 0.729167 13.4896 0 13.0312C0.125 13.0521 0.255208 13.0625 0.390625 13.0625C0.526042 13.0625 0.65625 13.0625 0.78125 13.0625C1.55208 13.0625 2.28646 12.9375 2.98438 12.6875C3.68229 12.4375 4.3125 12.0938 4.875 11.6562C4.14583 11.6562 3.5 11.4427 2.9375 11.0156C2.375 10.5885 2 10.0521 1.8125 9.40625C1.89583 9.40625 1.98958 9.41146 2.09375 9.42188C2.19792 9.43229 2.30208 9.4375 2.40625 9.4375C2.55208 9.4375 2.69792 9.42708 2.84375 9.40625C2.98958 9.38542 3.13542 9.36458 3.28125 9.34375C2.53125 9.17708 1.90625 8.79688 1.40625 8.20312C0.90625 7.60938 0.65625 6.91667 0.65625 6.125V6.0625C0.864583 6.1875 1.09375 6.28646 1.34375 6.35938C1.59375 6.43229 1.85417 6.47917 2.125 6.5C1.6875 6.1875 1.33333 5.79167 1.0625 5.3125C0.791667 4.83333 0.65625 4.3125 0.65625 3.75C0.65625 3.45833 0.697917 3.17188 0.78125 2.89062C0.864583 2.60938 0.979167 2.34375 1.125 2.09375C1.91667 3.09375 2.90104 3.90104 4.07812 4.51562C5.25521 5.13021 6.52083 5.46875 7.875 5.53125C7.85417 5.40625 7.83854 5.28125 7.82812 5.15625C7.81771 5.03125 7.8125 4.90625 7.8125 4.78125C7.8125 3.88542 8.13021 3.11458 8.76562 2.46875C9.40104 1.82292 10.1667 1.5 11.0625 1.5C11.5417 1.5 11.9896 1.59375 12.4062 1.78125C12.8229 1.96875 13.1771 2.21875 13.4688 2.53125C13.8438 2.46875 14.2083 2.36979 14.5625 2.23438C14.9167 2.09896 15.25 1.9375 15.5625 1.75C15.4375 2.125 15.25 2.46875 15 2.78125C14.75 3.09375 14.4583 3.35417 14.125 3.5625C14.4375 3.52083 14.7552 3.45833 15.0781 3.375C15.401 3.29167 15.7083 3.17708 16 3.03125C15.7708 3.36458 15.5208 3.67708 15.25 3.96875C14.9792 4.26042 14.6771 4.52083 14.3438 4.75Z" fill="#B5B6B8"/>
</svg>
