<svg width="14" height="16" viewBox="0 0 14 16" fill="none" xmlns="http://www.w3.org/2000/svg">
<path d="M13.9925 4.00618C13.0817 4.00618 12.2413 3.70321 11.5665 3.19211C10.7925 2.60621 10.2364 1.74676 10.04 0.756167C9.99077 0.507092 9.96489 0.253928 9.96272 0H7.3609V7.13851L7.35778 11.0486C7.35778 12.094 6.67982 12.9803 5.74002 13.2921C5.45851 13.3855 5.16202 13.425 4.86599 13.4085C4.47448 13.3869 4.1076 13.2683 3.78872 13.0767C3.11014 12.6692 2.65006 11.93 2.63759 11.0843C2.61795 9.76256 3.68212 8.68496 4.99753 8.68496C5.25718 8.68496 5.50655 8.72753 5.74002 8.80484V6.15231C5.49377 6.11569 5.24315 6.09659 4.98974 6.09659C3.54996 6.09659 2.20338 6.69752 1.24082 7.78013C0.513299 8.59827 0.0769075 9.64207 0.0095786 10.7366C-0.0786347 12.1744 0.445346 13.5412 1.46151 14.5496C1.61082 14.6977 1.76761 14.8351 1.93157 14.9618C2.80279 15.6351 3.8679 16 4.98974 16C5.24315 16 5.49377 15.9812 5.74002 15.9446C6.78798 15.7887 7.7549 15.3071 8.51796 14.5496C9.45557 13.6191 9.97363 12.3838 9.97924 11.069L9.96584 5.22995C10.4142 5.57719 10.9054 5.8648 11.4271 6.08564C12.2435 6.43149 13.1091 6.60676 14 6.60644V4.00556C14.0006 4.00618 13.9931 4.00618 13.9925 4.00618Z" fill="#B5B6B8"/>
</svg>
