<svg width="14" height="17" viewBox="0 0 14 17" fill="none" xmlns="http://www.w3.org/2000/svg">
<path fill-rule="evenodd" clip-rule="evenodd" d="M7.02359 4.11424e-05C3.22799 -0.0128536 0.127724 3.00694 0.00381108 6.78688L0 7.02149C0.0630885 8.87425 0.693459 10.6404 1.80373 12.0955L2.06449 12.4358C3.12425 13.7832 4.38366 14.966 5.79777 15.9409L6.13824 16.1701L6.18792 16.2091C6.67261 16.5573 7.32702 16.5573 7.8117 16.2091L7.85306 16.1751C8.97512 15.4474 10.0098 14.5924 10.9367 13.6269C12.821 11.6323 13.9567 9.39733 13.9996 7.1275L13.9997 7.04323C14.0125 3.238 11.002 0.128197 7.23372 0.00386263L7.02359 4.11424e-05ZM7.01891 1.24958C10.1306 1.26022 12.657 3.74644 12.7508 6.8426L12.7534 7.1156C12.7174 9.01859 11.721 10.9794 10.0354 12.7637C9.17592 13.6589 8.21225 14.4547 7.16706 15.1316L7.0974 15.1839C7.04111 15.2328 6.95762 15.2328 6.90133 15.1839L6.83363 15.1328C5.27661 14.1163 3.91007 12.8328 2.79651 11.3411C1.89955 10.1655 1.36803 8.75997 1.26105 7.2937L1.24533 6.99969C1.2559 3.8805 3.73446 1.34636 6.8211 1.25226L7.01891 1.24958ZM6.99959 4.44789C5.52682 4.44789 4.33291 5.64549 4.33291 7.1228C4.33291 8.60011 5.52682 9.79771 6.99959 9.79771C8.47236 9.79771 9.66627 8.60011 9.66627 7.1228C9.66627 5.64549 8.47236 4.44789 6.99959 4.44789ZM6.99924 5.69753C7.78398 5.69753 8.42014 6.33565 8.42014 7.12282C8.42014 7.90999 7.78398 8.54811 6.99924 8.54811C6.21449 8.54811 5.57833 7.90999 5.57833 7.12282C5.57833 6.33565 6.21449 5.69753 6.99924 5.69753Z" fill="#B5B6B8"/>
</svg>
